<svg xmlns="http://www.w3.org/2000/svg" xmlns:xlink="http://www.w3.org/1999/xlink" version="1.1" x="0px" y="0px" viewBox="0 0 98 122.5" enable-background="new 0 0 98 98" xml:space="preserve"><path d="M92.2,33.579h-0.355c-0.594-0.117-0.978-0.295-1.156-0.534c-0.178-0.236-0.387-0.473-0.621-0.712  c-0.24-0.236-0.356-0.472-0.356-0.71c-0.24,0.119-0.476,0.178-0.712,0.178c-0.595,0-1.009-0.117-1.246-0.356  c-0.237-0.117-0.326-0.445-0.266-0.979c0.058-0.533,0.089-1.036,0.089-1.512c0-0.472-0.031-0.77-0.089-0.889  c-0.061-0.117-0.267,0.119-0.623,0.71c-0.475,0.831-0.8,1.574-0.978,2.224c-0.178,0.652-0.386,1.218-0.623,1.689  c-0.239-0.117-0.417-0.178-0.534-0.178c-0.118,0-0.237-0.058-0.355-0.178c-0.594-0.356-1.128-0.533-1.6-0.533  c-0.12-0.473-0.209-0.801-0.268-0.979c-0.062-0.178-0.329-0.028-0.801,0.445l-0.355,0.356c-1.188,0-2.018,0.061-2.489,0.178  l-0.356-0.712l-0.534,0.889h-0.356c-0.354,0-0.771-0.058-1.243-0.177c-0.355-0.117-0.712-0.178-1.067-0.178  c-0.356,0-0.596-0.117-0.713-0.356c-0.238-0.236-0.83-0.117-1.776,0.356l-0.891-0.89l-2.135,1.422l-1.957-1.601l-1.422,0.89  l-0.533,0.178l-1.246-0.712v-0.356l0.356-0.354l-0.534-0.534v-0.534l-0.891-0.356v-0.178l-0.532-1.601l-0.889-0.889l-0.178-0.356  l-0.534-0.356l-0.356-1.601l-0.712-0.533c0.356-0.117,0.534-0.356,0.534-0.712l-2.489-4.624c-0.12-0.83-0.356-1.601-0.712-2.313  c-0.239-0.592-0.595-1.184-1.067-1.779c-0.476-0.592-1.01-1.006-1.601-1.245c-0.24,0-0.475-0.117-0.712-0.356  c0.117-0.117,0.178-0.236,0.178-0.356c0-0.117,0.06-0.294,0.179-0.534c0.235-0.828,0.115-1.006-0.356-0.533  c-0.475,0.475-0.831,0.595-1.068,0.356c-0.354-0.117-0.652-0.473-0.889-1.068c-0.12-0.236-0.176-0.414-0.176-0.533h-0.179  c-0.12,0-0.298-0.117-0.533-0.356c-0.356-0.356-0.624-0.712-0.802-1.068c-0.177-0.354-0.386-0.649-0.622-0.888  c0.236-0.592,0.445-1.068,0.622-1.423c0.178-0.356,0.148-0.414-0.088-0.178c0,0.239-0.298,0.653-0.89,1.245  c-0.239,0.475-0.476,0.89-0.712,1.245c-0.239,0.356-0.417,0.534-0.533,0.534c0.116-0.236,0.147-0.325,0.089-0.267  c-0.061,0.061-0.15,0.209-0.267,0.445c-0.711,0.712-1.245,1.066-1.601,1.066c-0.239,0.12-0.417,0.12-0.534,0  c0,0.239-0.062,0.477-0.178,0.712c-0.239,0.356-0.533,0.653-0.89,0.889c-0.239,0-0.533-0.116-0.889-0.355  c-0.356-0.237-0.653-0.445-0.889-0.623c-0.239-0.178-0.417-0.236-0.534-0.178c-0.119,0.061-0.062,0.328,0.177,0.801  c0.237,0.594,0.534,1.098,0.89,1.512c0.356,0.417,0.65,0.8,0.889,1.156l-0.711,0.712c-0.475,0.119-0.889,0.475-1.245,1.066  c-0.595-0.236-0.832-0.058-0.712,0.534v0.533l-1.066,2.135h-0.534l0.178,0.712v0.356l-0.711,1.067  c-0.476,0.71-0.89,1.066-1.246,1.066c-0.239,0.12-0.475,0.654-0.711,1.601l-0.889,0.534l-0.178,2.135l-1.956,0.889l-0.178,1.957  l-1.246,0.89c-0.12,0-0.297,0.119-0.533,0.355l0.356,0.356l0.889,0.534l-1.067,0.889c-0.239,0.12-0.475,0.178-0.711,0.178  c-0.24,0-0.476,0.061-0.712,0.178c-0.239,0.12-0.417,0.178-0.533,0.178l-1.779-1.066l-4.98,0.889L7.358,33.223h13.696  c1.54,0,2.993,0.03,4.357,0.089c1.362,0.061,2.696,0.089,4.002,0.089v0.711c-0.595,0.12-1.217,0.178-1.868,0.178  c-0.653,0-1.275,0-1.868,0l-0.889-0.356l0.355,0.356c-2.018,0.12-4.032,0.178-6.048,0.178c-2.018,0-3.855,0-5.513,0  c-2.019,0-3.914,0.061-5.692,0.178l17.075,0.888l1.423,0.534l1.245,1.779l-1.601-1.066l1.423,4.624l-2.134-3.379  c0.117,0.712,0.294,1.422,0.533,2.135c0.237,0.595,0.384,1.216,0.445,1.868c0.058,0.653,0.147,1.276,0.266,1.868  c-0.239,0.239-0.475,0.593-0.711,1.066c-0.239-0.473-0.444-0.859-0.622-1.155c-0.178-0.295-0.387-0.148-0.623,0.443l-1.423,5.158  c-0.239,0.12-0.444,0.151-0.622,0.089c-0.178-0.058-0.387-0.089-0.623-0.089c-0.239,0-0.417-0.058-0.534-0.178l0.178,0.178  c0.117,0.12,0.206,0.239,0.267,0.356c0.059,0.12,0.147,0.239,0.267,0.356l-0.178,0.178c0.117,0.119,0.178,0.239,0.178,0.356  c0,0.475-0.062,0.889-0.178,1.245l-0.356,0.711c-0.475,0.24-0.95,0.476-1.423,0.712c-0.476,0.239-0.831,0.298-1.067,0.178  c-0.239,0-0.444,0.15-0.622,0.445c-0.178,0.297-0.298,0.595-0.356,0.889c-0.061,0.298-0.061,0.506,0,0.623  c0.059,0.118,0.207,0,0.445-0.356c0.473-0.712,1.006-0.947,1.601-0.712c-0.239,0.356-0.417,0.743-0.533,1.157  c-0.12,0.417-0.297,0.8-0.534,1.155l-0.533,1.068l-1.423,1.066l-1.779,4.446L7.536,77.333c0.711-0.947,1.423-2.072,2.134-3.379  c0.592-1.066,1.273-2.251,2.045-3.558c0.77-1.303,1.57-2.667,2.401-4.09c0.948-1.425,1.806-2.786,2.579-4.092  c0.77-1.304,1.451-2.491,2.046-3.558c0.592-0.827,1.125-1.658,1.601-2.49c0.355-0.593,0.592-0.889,0.711-0.889v0.178  c-0.356,0.831-1.187,2.4-2.49,4.713c-1.306,2.312-2.729,4.775-4.269,7.382c-1.778,3.085-3.677,6.403-5.692,9.961l8.894-13.519  l3.379-3.379l-0.178-2.135l1.067-1.066c0.237-0.237,0.503-0.534,0.801-0.891c0.294-0.355,0.562-0.77,0.8-1.244  c0.236-0.828,0.383-1.305,0.445-1.423c0.058-0.117,0.206-0.474,0.444-1.068c0.237-0.354,0.65-0.532,1.246-0.532  c0.236,0,0.472,0.061,0.711,0.178l-0.534-1.779l1.779-0.178l-1.067-2.313h1.423c0.116-0.472,0.294-0.948,0.533-1.423  c0.237-0.473,0.445-0.917,0.623-1.333c0.177-0.414,0.384-0.918,0.623-1.512c0.356-0.237,0.77-0.473,1.245-0.712l1.245,25.791  l0.534-28.104l2.135-0.178l-2.135-2.133l0.889-0.712l0.356,0.712l1.423-2.135h0.712c0.947-0.236,1.481-0.414,1.601-0.534  c0.117-0.116,0.473-0.178,1.067-0.178l0.712,16.187l0.177-15.831l0.534,1.067c0.117,0.24,0.178,0.417,0.178,0.534l1.245-1.778  l1.245,1.957l1.245-2.845l1.067,1.601c0.592,0,1.125-0.06,1.601-0.178c0.829-0.117,1.895-0.295,3.201-0.534  c0.237,0.239,0.504,0.445,0.8,0.623c0.295,0.178,0.562,0.386,0.802,0.622c0.235,0.24,0.472,0.417,0.712,0.534l-1.247-1.957h0.356  l2.374,1.865l1.54,37.622l-1.068,1.601l-0.891-1.066c-0.593,0.12-1.127,0.179-1.599,0.179c-0.476,0.12-0.951,0.178-1.424,0.178  c-0.475,0-1.009,0.061-1.601,0.178c-0.356-0.235-0.653-0.384-0.889-0.445c-0.239-0.058-0.476-0.206-0.711-0.444  c-0.24-0.116-0.476-0.294-0.711-0.533l1.245,1.601H47.2l-2.312-1.424l0.178,1.068l-1.778-2.669l-0.89,3.024l-0.889-0.355  c0-0.117,0.028-0.206,0.089-0.268c0.059-0.058,0.089-0.146,0.089-0.267c0-0.117,0.059-0.178,0.178-0.178l-2.49-0.179l-2.312,1.957  l-0.711,0.178l-0.711-0.355v-0.533l-0.711,0.354l-0.534-0.176l-0.711,0.354h-0.178l-1.066-2.134l-1.067,2.312l-1.246-0.178  l-0.533,0.178l-1.601-0.532l-0.711,0.354c-0.24-0.472-0.417-0.771-0.534-0.889c-0.239-0.236-0.623-0.562-1.156-0.979  c-0.534-0.414-0.92-0.443-1.156-0.089c-0.239,0.24-0.773,0.477-1.601,0.712c-0.475,0.12-0.889,0.179-1.245,0.179  c-0.831-0.236-1.662-0.414-2.49-0.534c-0.711-0.116-1.422-0.116-2.134,0c-0.712,0.12-1.365,0.417-1.957,0.89  c-0.119,0.119-0.208,0.178-0.267,0.178c-0.061,0-0.149,0.062-0.266,0.179l-0.712-0.712c-0.594-0.593-0.8-0.623-0.623-0.09  c0.178,0.534,0.089,0.92-0.267,1.156c-0.239,0.12-0.653,0.178-1.245,0.178c-0.239,0-0.476-0.058-0.711-0.178l-0.178,0.178  c-0.239,0.239-0.417,0.356-0.534,0.356c-1.067,0.238-1.898,0.355-2.49,0.355c0.062,0,0.101,0,0.178,0  c-0.12,0.119,0.059,0.179,0.534,0.179c0.592,0.118,1.125,0.416,1.601,0.888c0.116,0.239,0.236,0.417,0.355,0.534  c0.236-0.117,0.472-0.178,0.711-0.178c0.593,0,1.007,0.061,1.246,0.178c0.116,0.119,0.178,0.386,0.178,0.8  c0,0.417-0.031,0.802-0.089,1.157c-0.062,0.356-0.062,0.563,0,0.622c0.059,0.062,0.267-0.147,0.623-0.622  c0.473-0.592,0.77-1.126,0.889-1.601c0.117-0.474,0.294-0.891,0.534-1.246c0.236,0.12,0.414,0.178,0.533,0.178  c0.117,0,0.294,0.062,0.534,0.178c0.472,0.239,0.948,0.356,1.423,0.356c0.236,0.595,0.592,0.712,1.066,0.356l0.178-0.179  c0.592,0,1.067-0.027,1.423-0.089c0.355-0.058,0.711-0.089,1.066-0.089l0.356,0.534l0.533-0.712h0.356  c0.355,0.12,0.77,0.178,1.245,0.178c0.356,0.12,0.681,0.178,0.979,0.178c0.294,0,0.503,0.062,0.623,0.179  c0.236,0.238,0.65,0.207,1.245-0.089c0.592-0.296,1.067-0.503,1.423-0.624l0.889,11.739l1.067-11.561l1.957,1.066l2.49-0.889  l0.711,6.581l0.711-7.115l2.312,0.712l0.355-0.534l0.178,0.534h0.889l-0.178,2.846l3.024-1.778l-3.735,4.979l6.226-4.624v1.957  l3.201-3.38l-1.779,3.558l1.423-1.423c0.473-0.473,0.948-0.947,1.423-1.424c0.473-0.472,1.006-0.889,1.601-1.245h1.424  c-0.356,0.356-0.623,0.713-0.801,1.068c-0.178,0.354,0.089,0.475,0.801,0.354c0.59,0,1.006-0.146,1.244-0.443  c0.236-0.295,0.474-0.562,0.711-0.801l1.068-0.711l1.244,1.245l0.889-0.713c0.119,0.239,0.237,1.157,0.356,2.759  c0.117,1.601,0.237,3.408,0.355,5.423c0.117,2.255,0.179,4.804,0.179,7.649v-7.471c0-1.895,0.028-3.615,0.089-5.158  c0.06-1.54,0.148-2.429,0.267-2.668l0.179,0.179c0-0.117,0.058-0.236,0.178-0.356c0.355-0.356,0.769-0.534,1.244-0.534h0.889  c0.474,0.239,0.917,0.534,1.336,0.891c0.413,0.355,0.623,0.652,0.623,0.889c0,0.238,0.204,0.355,0.621,0.355  c0.414,0,0.771-0.058,1.066-0.178c0.296-0.117,0.505-0.236,0.623-0.356c0.116-0.115-0.061-0.235-0.533-0.354  c-0.95,0-1.423-0.295-1.423-0.89c0.355,0,0.77,0,1.244,0c0.474,0,0.891-0.058,1.246-0.179c0.472-0.115,0.889-0.235,1.245-0.355  l1.601,0.89l4.804-0.712l16.541-0.532H76.371c-1.663,0-3.264-0.028-4.803-0.089c-1.543-0.06-2.966-0.089-4.27-0.089h-3.023  c-0.239,0-0.416-0.028-0.534-0.09c-0.119-0.059-0.237-0.089-0.354-0.089h-0.179v-0.178c0.828-0.117,2.638-0.178,5.426-0.178  c2.784,0,5.719-0.059,8.803-0.179c3.558,0,7.41-0.058,11.562-0.178l-16.363-0.711l-4.804-1.246l-1.601,1.425  c-0.595-0.237-1.129-0.416-1.601-0.534c-0.475-0.117-0.949-0.206-1.423-0.268c-0.476-0.058-0.889-0.027-1.244,0.09  c-0.951,0.238-1.483,0.386-1.603,0.444c-0.118,0.062-0.475,0.03-1.066-0.089c-0.595,0-1.009-0.235-1.245-0.712  c-0.118-0.236-0.178-0.472-0.178-0.711l-1.245,1.423l-1.066-1.423h-0.178l1.066-39.132l0.889,0.534l-0.355,0.712l-0.179,0.177  l4.27,0.178l0.712-2.667l0.713-0.178l0.889,0.356v0.178l-1.779,0.889l3.023,1.422l-2.133,1.424l3.023,1.066l-1.603,0.889  l3.201,0.712l0.712,27.392c0-4.741,0.117-9.01,0.356-12.806c0.115-3.203,0.356-6.077,0.712-8.627  c0.134-0.964,0.285-1.735,0.454-2.317c0.012,0.146,0.092,0.352,0.257,0.627c0.592,0.71,1.304,1.066,2.135,1.066l1.068,0.534  l-0.356,1.601l1.066,0.354c-0.12,0.241-0.238,0.417-0.355,0.534c-0.12,0.12-0.239,0.298-0.354,0.534  c-0.12,0.239-0.241,0.417-0.356,0.534h0.356c0.115,0,0.234-0.028,0.354-0.089c0.117-0.059,0.295-0.089,0.534-0.089v0.178h0.354  c0.237,0,0.593,0.238,1.067,0.711l0.356,0.712c0,0.595,0,1.127,0,1.601c0,0.475-0.119,0.831-0.356,1.066  c-0.118,0.12-0.089,0.328,0.09,0.623c0.178,0.297,0.382,0.563,0.623,0.8c0.235,0.238,0.412,0.387,0.533,0.445  c0.116,0.061,0.116-0.147,0-0.623c-0.355-0.828-0.355-1.423,0-1.779c0.473,0.951,0.947,1.663,1.422,2.135l0.89,0.891l0.179,1.778  l3.022,3.735l8.538,13.518l-6.403-11.028c-0.95-1.423-1.778-2.815-2.49-4.181c-0.712-1.36-1.365-2.518-1.955-3.467  c-0.356-0.593-0.623-1.096-0.802-1.513c-0.178-0.414-0.386-0.8-0.623-1.156c-0.238-0.235-0.355-0.472-0.355-0.712l-0.179-0.177  c0-0.117,0.06-0.178,0.179-0.178c0.473,0.711,1.45,2.223,2.936,4.535c1.482,2.312,2.992,4.713,4.535,7.204  c1.778,2.966,3.735,6.225,5.869,9.782l-7.47-14.229L82.24,56.7l-1.957-0.71c-0.12-0.474-0.238-0.948-0.355-1.425  c-0.475-1.184-0.889-2.014-1.245-2.489c-0.595-0.592-0.949-0.947-1.068-1.067c-0.118-0.116-0.354-0.472-0.71-1.067  c-0.239-0.236-0.179-0.65,0.178-1.245c0.117-0.236,0.295-0.414,0.532-0.534l-1.776-0.356l0.533-1.779h-2.313l0.533-1.245  c-0.238-0.356-0.533-0.77-0.888-1.245c-0.239-0.356-0.565-0.74-0.979-1.157c-0.418-0.414-0.743-0.857-0.979-1.333v-2.667  l-0.712,1.779c0-0.117-0.062-0.237-0.179-0.356l0.179-2.668l-0.889,0.712l1.244-2.489l0.712-0.534  c0.116,0.356,0.294,0.773,0.534,1.245c0.234,0.356,0.622,0.831,1.156,1.423c0.532,0.595,0.916,0.654,1.155,0.178  c0.117-0.236,0.356-0.445,0.712-0.622c0.356-0.178,0.712-0.326,1.066-0.445c0.474-0.117,0.889-0.236,1.245-0.356  c0.828,0.356,1.66,0.595,2.491,0.712c0.71,0.119,1.45,0.119,2.224,0c0.769-0.117,1.45-0.473,2.044-1.068  c0.117-0.116,0.237-0.205,0.356-0.267c0.117-0.058,0.237-0.147,0.355-0.266c0,0.119,0.028,0.889,0.089,2.311  c0.06,1.423,0.148,2.966,0.268,4.625c0.115,1.663,0.205,3.203,0.267,4.625c0.059,1.423,0.089,2.195,0.089,2.311  c0.356,0.356,0.562-0.146,0.622-1.512c0.058-1.362,0.089-2.992,0.089-4.891c0-1.894,0-3.673,0-5.336  c0-1.659,0.117-2.549,0.356-2.667c0.235-0.117,0.651-0.178,1.244-0.178c0.237,0,0.472,0.061,0.712,0.178  c-0.118,0-0.118-0.059,0-0.178c0-0.117,0.236-0.295,0.713-0.534c1.066-0.236,1.895-0.356,2.489-0.356c0.592,0,0.592-0.058,0-0.177  H92.2z M32.081,33.4l-0.356,0.711L30.659,33.4H32.081z M30.125,43.005c0-0.236,0.059-0.356,0.178-0.356l0.178,0.178L30.125,43.005z   M29.769,40.516c0-0.117,0.058-0.356,0.178-0.712c0.116-0.356,0.472-1.005,1.066-1.957c0.237-0.472,0.415-0.77,0.534-0.889  c0.117,0.239,0,0.771-0.356,1.601C30.361,39.864,29.886,40.516,29.769,40.516z M32.438,41.226l-0.89-0.356h0.89V41.226z   M34.571,33.579c0.117,0,0.178,0.061,0.178,0.177L34.571,33.579z M38.485,32.511h-0.89c-0.239-0.236-0.417-0.383-0.534-0.445  c-0.12-0.058-0.297-0.205-0.534-0.443v-0.89l1.245-1.245l0.178-1.245l0.356-0.356v-0.534l0.355,4.98L38.485,32.511z M23.899,78.401  l-1.067-0.712l0.534-0.712l1.423,1.068L23.899,78.401z M39.018,78.046l-0.356-0.534l0.534-0.713L39.018,78.046z M44.799,78.224  c-0.417,0.118-1.156,0.118-2.223,0c-0.476,0-0.773-0.06-0.89-0.178c0.236-0.238,0.711-0.356,1.423-0.356  c1.423,0,2.313,0.061,2.668,0.178C45.538,77.986,45.213,78.106,44.799,78.224z M57.694,19.883l0.712,0.177l-0.178,1.601  l-0.713-0.533L57.694,19.883z M54.137,14.547c-0.077-0.076-0.12-0.187-0.146-0.315C54.082,14.337,54.137,14.443,54.137,14.547z   M44.709,15.079c0,0.12-0.061,0.239-0.177,0.356c0,0.121-0.031,0.178-0.089,0.178l0,0L44.709,15.079z M40.264,21.838l1.066-0.532  l0.178,0.889l-1.423,0.534L40.264,21.838z M55.561,33.933c-1.424,0-2.314-0.058-2.669-0.178c0.117-0.116,0.385-0.266,0.8-0.444  c0.416-0.178,1.215-0.206,2.402-0.089c0.473,0,0.829,0.061,1.066,0.178C56.923,33.755,56.389,33.933,55.561,33.933z M56.982,30.021  l-3.558-13.163l0.712,10.316l-3.202,4.448l1.957-4.804c-0.595,0.712-1.129,1.365-1.601,1.957c-0.475,0.595-0.978,1.218-1.512,1.868  c-0.533,0.654-1.039,1.218-1.512,1.69c-0.355-0.116-0.831-0.178-1.423-0.178c0.236-0.472,0.444-0.917,0.623-1.333  c0.178-0.414-0.03-0.622-0.623-0.622c-0.711,0.119-1.187,0.354-1.422,0.71c-0.24,0.356-0.476,0.712-0.712,1.067h-0.177l-0.889,0.89  l-1.246-1.601l-1.067,0.889c-0.239-0.236-0.355-0.472-0.355-0.71c0-0.236-0.062-0.473-0.178-0.712  c-0.12-0.236-0.178-0.472-0.178-0.711c0,0.239-0.061,0.417-0.178,0.533c-0.239,0.476-0.355,0.773-0.355,0.89l-0.178-0.178  c-0.12,0-0.178,0.061-0.178,0.178L39.551,31.8l0.178-6.404h0.889c0.356,0,0.859-0.116,1.512-0.354  c0.651-0.237,0.859-0.534,0.623-0.89c-0.119-0.236-0.119-0.503,0-0.8c0.117-0.295,0.236-0.623,0.355-0.979  c0.117-0.472,0.237-0.889,0.356-1.245c0.592-0.592,1.125-1.184,1.601-1.779c0.356-0.592,0.711-1.215,1.067-1.868  c0.355-0.65,0.473-1.333,0.355-2.046v-0.71c0.356,0,0.65-0.059,0.89-0.178c0.828-0.238,0.948-0.416,0.356-0.534  c-0.595-0.117-0.89-0.414-0.89-0.89c0-0.236,0.059-0.414,0.178-0.533c0.116-0.117,0.236-0.295,0.355-0.534  c0.117-0.236,0.294-0.414,0.534-0.534c0.236-0.116,0.414-0.294,0.534-0.533c0.116-0.237,0.205-0.445,0.267-0.623  c0.058-0.178,0.147-0.383,0.267-0.623c0.117-0.236,0.267-0.561,0.445-0.978c0.178-0.414,0.325-0.801,0.444-1.156l0.178,0.178  c0.356,0.831,0.414,1.484,0.178,1.956c-0.119,0.24-0.239,0.417-0.356,0.534c0.237,0.12,0.415,0.298,0.534,0.534  c0.236,0.475,0.355,0.831,0.355,1.067c0,0.239-0.177,0.445-0.534,0.623c-0.356,0.178-0.684,0.356-0.978,0.533  c-0.297,0.178-0.476,0.329-0.534,0.445c-0.062,0.12,0.206,0.178,0.801,0.178c0.592,0,1.155-0.058,1.689-0.178  c0.534-0.116,1.035-0.116,1.512,0c0,0.239,0.028,0.387,0.089,0.445c0.058,0.061,0.089,0.208,0.089,0.445  c0,0.239,0.117,0.71,0.354,1.423c-0.475,0.475-0.415,0.831,0.179,1.066c0.237,0,0.415,0.061,0.534,0.178  c0.237,0.356,0.444,0.712,0.623,1.068c0.178,0.354,0.383,0.653,0.623,0.889l-0.356,0.534l0.891,0.178l0.176,0.178  c0.117,0.354,0.296,0.71,0.534,1.067c0.117,0.239,0.236,0.534,0.354,0.888c0.119,0.356,0.179,0.595,0.179,0.712  c-0.119,0.239-0.03,0.475,0.267,0.712c0.295,0.239,0.562,0.475,0.801,0.71l-0.178,1.068l1.957,1.245v1.601L56.982,30.021z   M59.65,35.001l0.179-1.423l0.354,0.533L59.65,35.001z M61.607,31.622l-0.178-0.178l-0.356,0.71l-0.355-0.71h-0.889l0.178-2.847  l1.245,0.712L61.607,31.622l1.423-0.712l0.178,1.423L61.607,31.622z M67.12,36.958c-0.237-0.237-0.354-0.534-0.354-0.89  c0.117,0,0.474,0.356,1.066,1.067c0.356,0.595,0.594,1.04,0.713,1.335c0.115,0.297,0.235,0.564,0.355,0.8  C68.426,39.27,67.832,38.5,67.12,36.958z M70.323,43.717c0.117,0.239,0.206,0.444,0.266,0.622c0.06,0.178,0.148,0.387,0.267,0.623  c-0.475-0.117-0.889-0.178-1.244-0.178c-0.083,0-0.145,0.019-0.188,0.052C69.686,44.033,69.983,43.65,70.323,43.717z M68.545,35.712  l-0.179-0.71l0.356-0.178l0.355,0.178l0.533-0.356l1.244,0.534L68.545,35.712z M76.193,34.823L74.77,33.4l0.89-0.534l1.066,1.066  L76.193,34.823z M83.841,33.755c-0.12,0-0.178-0.027-0.178-0.088c0-0.059-0.061-0.089-0.178-0.089c0.355,0,0.592,0.061,0.71,0.177  H83.841z"/></svg>