<svg xmlns="http://www.w3.org/2000/svg" xmlns:xlink="http://www.w3.org/1999/xlink" version="1.1" x="0px" y="0px" viewBox="0 0 98 122.5" enable-background="new 0 0 98 98" xml:space="preserve"><path d="M39.001,22.912c-0.392-0.545-1.074-1.716-2.049-3.512c-0.977-1.795-2.01-3.707-3.103-5.737  c-1.25-2.342-2.616-4.877-4.098-7.611l4.917,11.123l1.522,10.538l0.702-6.323c0,0.392,0.039,0.781,0.117,1.171  c0.077,0.392,0.176,0.761,0.293,1.112c0.117,0.351,0.292,0.644,0.527,0.878c0.39,0.469,0.644,0.743,0.761,0.82  c0.117,0.079,0.252,0.313,0.41,0.703c0.155,0.392,0.077,0.743-0.234,1.054c-0.157,0.157-0.351,0.313-0.585,0.468l1.639,0.234  l0.207,23.807l-2.08,0.547l-8.079,0.234l6.323,0.234c1.36,0.068,2.633,0.137,3.847,0.203l0.005,0.615c-0.017,0-0.03,0-0.047,0  c-1.367,0-2.792,0-4.274,0c-1.718,0-3.591-0.037-5.62-0.116l7.962,0.937l1.994,0.944l0.104,12.055l-2.215,0.583l-8.079,0.234  l6.323,0.234c1.561,0.078,3.024,0.156,4.391,0.234c1.365,0.078,2.049,0.156,2.049,0.233v0.117c-0.392,0.157-1.27,0.234-2.634,0.234  c-1.367,0-2.792,0-4.274,0c-1.718,0-3.591-0.038-5.62-0.117l7.962,0.937l2.225,1.054l0.937-1.171l0.702,0.469  c0.39,0.234,0.82,0.312,1.288,0.234c0.39-0.156,0.624-0.273,0.703-0.352c0.077-0.077,0.272-0.077,0.585,0  c0.155,0,0.311,0.234,0.468,0.703c0.077,0.233,0.117,0.43,0.117,0.585l0.703-1.171l0.468,1.287l0.703-1.873l0.351,1.055  c0.234,0,0.507-0.039,0.82-0.117c0.234-0.077,0.468-0.117,0.702-0.117c0.206,0,0.447-0.035,0.713-0.096l-0.362,1.266l0.468,1.289  l-0.117,0.468l0.117,0.351l-0.352,1.523l0.234,0.818c-0.157,0.079-0.292,0.138-0.41,0.176c-0.117,0.041-0.216,0.1-0.293,0.176  c-0.312,0.234-0.644,0.605-0.995,1.113s-0.372,0.877-0.059,1.111c0.156,0.158,0.272,0.393,0.352,0.703  c0.077,0.312,0.155,0.625,0.234,0.937c0.077,0.392,0.156,0.781,0.234,1.171c-0.158,0.703-0.274,1.445-0.352,2.225  c-0.079,0.625-0.079,1.288,0,1.99c0.077,0.703,0.311,1.328,0.703,1.873c0.156,0.313,0.234,0.547,0.234,0.703l-0.585,0.586  c-0.234,0.312-0.333,0.508-0.293,0.585c0.039,0.079,0.135,0.117,0.293,0.117c0.155,0,0.331,0,0.527,0  c0.194,0,0.331,0.079,0.41,0.233c0.156,0.469,0.234,0.82,0.234,1.055s-0.041,0.468-0.117,0.702l0.117,0.117  c0.077,0.079,0.194,0.274,0.351,0.585c0.077,1.016,0.117,1.797,0.117,2.342s0.039,0.507,0.117-0.117l0.117-0.117v-0.351  c0.077-0.39,0.194-0.722,0.352-0.995c0.155-0.273,0.311-0.486,0.468-0.645c0.155-0.155,0.311-0.234,0.469-0.234  c-0.158-0.234-0.234-0.468-0.234-0.702c-0.158-0.39-0.079-0.779,0.234-1.171c0.155-0.155,0.409-0.214,0.761-0.176  c0.351,0.041,0.683,0.059,0.995,0.059c0.311,0,0.507-0.018,0.586-0.059c0.076-0.038-0.117-0.214-0.586-0.526  c-0.469-0.39-0.918-0.683-1.347-0.878c-0.43-0.194-0.802-0.37-1.112-0.527c0-0.311,0.077-0.624,0.234-0.937l0.352-1.405  c0.234-0.076,0.41-0.155,0.526-0.234c0.117-0.076,0.059-0.311-0.175-0.702c-0.158-0.155-0.234-0.272-0.234-0.352  c0-0.39-0.021-0.779-0.059-1.171c-0.041-0.39-0.059-0.779-0.059-1.17l0.469-0.234l-0.586-0.586l-0.117-0.234  c0-0.39,0.038-0.779,0.117-1.171c0.076-0.311,0.117-0.624,0.117-0.937c0-0.311,0.076-0.545,0.234-0.703  c0.154-0.154,0.193-0.389,0.117-0.701c-0.079-0.312-0.196-0.625-0.352-0.938l0.585-0.819l-0.819-1.874l0.721-1.351l0.099,0.298  l0.392-2.158l0.662,4.383l0.125-3.346l1.631,2.174l0.234-4.332l0.352-0.117l0.352,0.234v0.469l0.352-0.117l0.234,0.117l0.351-0.469  l1.405,2.693l0.117-2.576l0.234,0.117l0.234-0.234l0.584,6.908l0.586-6.791c0-0.155,0.019-0.076,0.059,0.234  c0.039,0.312,0.059,0.508,0.059,0.586c0.156,0.312,0.352,0.644,0.586,0.994c0.234,0.352,0.428,0.372,0.585,0.059  c0.077-0.076,0.194,0.664,0.352,2.225c0.155,1.562,0.312,3.319,0.468,5.27c0.234,2.265,0.428,4.879,0.586,7.845  c0.39-2.81,0.779-5.346,1.171-7.61c0.312-1.951,0.644-3.785,0.995-5.504c0.352-1.715,0.682-2.77,0.995-3.16l0.352-0.352  c0,0.156,0.077,0.391,0.233,0.702c0.312,0.468,0.429,0.45,0.352-0.059c-0.078-0.507-0.04-0.838,0.117-0.995  c0.077-0.077,0.273-0.117,0.586-0.117c0.155,0,0.272,0.04,0.352,0.117l0.116-0.117c0-0.076,0.077-0.193,0.234-0.352  c0.546-0.076,0.955-0.117,1.229-0.117c0.272,0,0.252-0.038-0.059-0.117v-0.117h-0.234c-0.234-0.076-0.41-0.193-0.527-0.351  c-0.117-0.155-0.215-0.312-0.292-0.468c-0.079-0.156-0.117-0.312-0.117-0.469c-0.079,0.078-0.196,0.117-0.351,0.117  c-0.313,0-0.51-0.077-0.586-0.234c-0.078-0.077-0.117-0.293-0.117-0.645c0-0.351,0.018-0.682,0.059-0.994  c0.038-0.312,0.038-0.508,0-0.586c-0.041-0.077-0.137,0.078-0.293,0.469c-0.157,0.468-0.293,0.918-0.41,1.346  c-0.117,0.43-0.254,0.84-0.409,1.229l-0.352-0.351c-0.312-0.156-0.585-0.273-0.819-0.352c0-0.545-0.117-0.662-0.352-0.352  l-0.234,0.234c-0.547,0-0.937,0.04-1.17,0.117l-0.117-0.469l-0.352,0.586h-0.117c-0.157,0-0.352-0.039-0.586-0.117  c-0.547-0.156-0.819-0.273-0.819-0.352c-0.079-0.155-0.196-0.193-0.351-0.117c-0.158,0.078-0.313,0.195-0.469,0.352l-0.469-0.703  l-0.326,0.328l0.443-13.324c0-0.156,0.019-0.076,0.059,0.234c0.039,0.312,0.059,0.508,0.059,0.585  c0.156,0.313,0.352,0.644,0.586,0.995s0.428,0.371,0.585,0.059c0.155-0.234,0.429-0.428,0.819-0.585  c0.234-0.077,0.428-0.155,0.586-0.234c0.39,0.234,0.779,0.392,1.171,0.468c0.312,0.079,0.644,0.1,0.995,0.059  c0.352-0.038,0.682-0.252,0.995-0.644l0.352-0.351c0,0.156,0.077,0.391,0.233,0.702c0.312,0.468,0.429,0.45,0.352-0.059  c-0.078-0.507-0.04-0.838,0.117-0.995c0.077-0.077,0.273-0.117,0.586-0.117c0.155,0,0.272,0.04,0.352,0.117l0.116-0.117  c0-0.077,0.077-0.193,0.234-0.352c0.546-0.076,0.955-0.117,1.229-0.117c0.272,0,0.252-0.038-0.059-0.117v-0.117h-0.234  c-0.234-0.076-0.41-0.193-0.527-0.351c-0.117-0.155-0.215-0.312-0.292-0.469c-0.079-0.155-0.117-0.312-0.117-0.468  c-0.079,0.078-0.196,0.117-0.351,0.117c-0.313,0-0.51-0.077-0.586-0.234c-0.078-0.077-0.117-0.293-0.117-0.645  s0.018-0.682,0.059-0.995c0.038-0.311,0.038-0.507,0-0.585c-0.041-0.077-0.137,0.079-0.293,0.469  c-0.157,0.468-0.293,0.918-0.41,1.346c-0.117,0.43-0.254,0.84-0.409,1.229l-0.352-0.351c-0.312-0.156-0.585-0.273-0.819-0.352  c0-0.545-0.117-0.662-0.352-0.352l-0.234,0.234c-0.547,0-0.937,0.04-1.17,0.117l-0.117-0.469l-0.352,0.586h-0.117  c-0.157,0-0.352-0.039-0.586-0.117c-0.547-0.156-0.819-0.273-0.819-0.352c-0.079-0.156-0.196-0.193-0.351-0.117  c-0.158,0.078-0.313,0.195-0.469,0.352l-0.469-0.703l-0.937,0.938l-0.937-1.055l-0.82,0.703l-0.936-0.82l-0.053,0.621  c-0.074-0.049-0.166-0.099-0.299-0.152c-0.158,0-0.254-0.018-0.293-0.059c-0.04-0.038-0.099-0.059-0.176-0.059  c-0.157-0.39-0.469-0.896-0.937-1.522l0.352-0.468l-0.378-0.063l0.026-0.288l-0.235,0.253l-0.115-0.02l-0.117-0.117  c-0.053-0.104-0.094-0.208-0.138-0.312l0.021-0.04l-0.029,0.019c-0.084-0.201-0.156-0.402-0.205-0.604  c-0.078-0.234-0.158-0.468-0.234-0.703c-0.078-0.234-0.078-0.428,0-0.585c0.156-0.155,0.117-0.311-0.117-0.468  c-0.234-0.155-0.469-0.311-0.703-0.468l0.352-0.937l-0.702-0.352c0.077-0.077,0.39-0.351,0.937-0.819  c0.545-0.468,0.896-1.014,1.055-1.639c0.154-0.624,0.233-1.014,0.233-1.171c0-0.156,0.077-0.428,0.234-0.82  c0.155-0.234,0.507-0.351,1.054-0.351c0.234,0,0.469,0.04,0.703,0.117l-0.703-1.405l1.639-0.117l-1.404-1.756l1.287-0.117  l1.055-3.162c0.234-0.155,0.428,0.43,0.585,1.756c0.155,1.328,0.272,2.81,0.352,4.449l0.233,6.557l0.586-13.699  c0-0.077-0.234-0.117-0.703-0.117c-0.341,0-0.533,0-0.584,0l1.99-0.82l-1.055-0.468l-0.585-1.288l1.288-0.585l0.586-0.469  c0.076,0.158,0.193,0.313,0.351,0.469l0.117,0.117l1.522-2.576l-1.522-1.288l0.117-0.585l0.468-0.351l0.469,0.234l0.117-0.585  l0.352-0.234l-0.234-0.703v-0.117l0.937-0.819l0.117-1.054l0.233-0.352v-0.351l0.938-0.82v-0.702  c0.234,0.079,0.545,0.117,0.937,0.117c0.312,0,0.741-0.077,1.288-0.234c0.545-0.156,0.702-0.39,0.469-0.703  c-0.234-0.311-0.275-0.779-0.117-1.405l0.234-0.937c0.545-0.468,0.975-0.937,1.287-1.405c0.311-0.39,0.545-0.838,0.703-1.347  c0.155-0.507,0.155-1.072,0-1.698c-0.079-0.077-0.117-0.272-0.117-0.585c0.389,0,0.662-0.039,0.819-0.117  c0.312-0.077,0.468-0.135,0.468-0.175c0-0.039-0.078-0.097-0.234-0.176c-0.156-0.077-0.351-0.176-0.585-0.293  c-0.233-0.117-0.351-0.252-0.351-0.41c0-0.311,0.117-0.585,0.351-0.819c0.077-0.156,0.194-0.311,0.352-0.469  c-0.079,0-0.117-0.038-0.117-0.117C70.418,8.55,70.38,8.354,70.38,8.042c0.234-0.78,0.448-1.365,0.644-1.756  c0.194-0.39,0.136-0.39-0.176,0l-0.116,0.117c0.015-0.029,0.017-0.033,0.026-0.054c-0.037,0.075-0.083,0.167-0.144,0.289  c-0.468,0.468-0.937,0.703-1.405,0.703h-0.586c0,0.157-0.039,0.313-0.116,0.468c-0.234,0.392-0.431,0.625-0.585,0.703  c-0.234,0.079-0.606-0.039-1.113-0.352c-0.508-0.311-0.878-0.506-1.111-0.585c0.233-0.077,0.506-0.194,0.818-0.351  c0.077-0.077,0.136-0.117,0.176-0.117c0.039,0,0.098-0.038,0.176-0.117c0,0.079,0.077,0.196,0.234,0.352  c0.311,0.313,0.428,0.333,0.352,0.059c-0.079-0.273-0.041-0.448,0.117-0.527h0.585h0.352V6.754c0.077,0,0.155-0.039,0.233-0.117  c0.546-0.077,0.955-0.117,1.23-0.117c-0.021,0-0.033,0-0.059,0c0-0.077-0.041-0.117-0.117-0.117h-0.117  c-0.312,0-0.586-0.117-0.82-0.351c-0.078-0.077-0.117-0.155-0.117-0.234c-0.078,0.079-0.195,0.117-0.351,0.117  c-0.313,0-0.509-0.038-0.585-0.117c-0.158-0.156-0.176-0.448-0.059-0.878c0.117-0.428,0.018-0.448-0.293-0.059  c-0.158,0.234-0.275,0.468-0.352,0.703c-0.078,0.234-0.195,0.43-0.352,0.585c-0.157,0-0.254-0.019-0.293-0.059  c-0.039-0.039-0.098-0.059-0.175-0.059c-0.157-0.077-0.274-0.117-0.352-0.117c-0.079,0-0.196-0.038-0.351-0.117  c0-0.311-0.158-0.352-0.469-0.117l-0.117,0.117h-1.171l-0.117-0.234l-0.234,0.351h-0.233h-0.586c-0.312,0-0.547-0.077-0.703-0.234  c-0.233-0.077-0.508-0.039-0.818,0.117l-0.469-0.234l-0.938,0.351l-0.818-0.468l-0.82,0.352l-1.054-0.352v0.703l-1.054-0.351  l-0.234,0.234l-0.117-0.234h-0.352l0.117-1.288l-1.404,0.819l-0.352-2.225l-0.938,1.991l0.117-0.82l-1.639,1.522l0.938-1.64  L51.412,4.88c-0.234,0.157-0.468,0.352-0.703,0.585c-0.234,0.234-0.468,0.43-0.703,0.585c-0.312,0-0.547-0.039-0.703-0.117  c0.156-0.155,0.293-0.292,0.41-0.41s-0.02-0.176-0.41-0.176c-0.312,0.079-0.508,0.158-0.585,0.234  c-0.079,0.079-0.196,0.196-0.352,0.351l-0.468,0.234L47.314,5.7l-0.468,0.234c-0.157-0.155-0.234-0.311-0.234-0.468  c-0.079-0.077-0.117-0.155-0.117-0.234L46.26,5.7c0,0.079-0.041,0.157-0.117,0.234c-0.079,0.079-0.274,0.117-0.585,0.117h-0.351  c-0.626-0.311-0.977-0.545-1.054-0.703c0-0.155-0.234-0.175-0.703-0.059c-0.468,0.117-0.509,0.176-0.117,0.176  c0.468,0.157,0.703,0.313,0.703,0.468c-0.157,0-0.352,0.021-0.585,0.059c-0.234,0.041-0.43,0.059-0.585,0.059  c-0.234,0.079-0.43,0.117-0.585,0.117l-0.82-0.351l-2.225,0.351l-7.728,0.117h1.99c0.624,0,1.288,0.02,1.991,0.059  c0.703,0.04,1.443,0.058,2.225,0.058h4.215h1.405c0.077,0,0.155,0.021,0.234,0.059c0.077,0.041,0.155,0.059,0.234,0.059h0.117  c-0.157,0-0.392,0.021-0.703,0.059c-0.312,0.041-0.664,0.059-1.054,0.059c-0.625,0-1.288,0.02-1.99,0.059  c-0.703,0.04-1.445,0.059-2.225,0.059h-6.206l7.728,0.351l2.225,0.585l0.819-0.585c0.234,0,0.469,0.041,0.703,0.117  c0.468,0.157,0.896,0.196,1.288,0.117c0.39-0.077,0.624-0.135,0.703-0.176c0.077-0.039,0.272-0.018,0.585,0.059  c0.077,0,0.234,0.117,0.468,0.351c0.077,0.079,0.117,0.158,0.117,0.234l0.585-0.585l0.468,0.585l0.703-0.82l0.351,0.469  c0.155-0.077,0.39-0.117,0.703-0.117c0.234,0,0.486,0,0.761,0c0.273,0,0.527-0.039,0.761-0.117l0.703,0.351  c0.155,0.079,0.272,0.158,0.352,0.234l-0.586-0.703h0.234l1.054,0.703V7.222l0.819,1.288l0.352-1.405l0.469,0.234l-0.234,0.234  l1.99,0.117l0.234-0.937h0.352l0.351,0.117v0.234l0.352-0.117l0.233,0.117l0.352-0.234h0.117l0.703,0.234l0.702-0.234h0.233h0.117  l0.82,0.117l0.352-0.117c0,0.234,0.076,0.351,0.234,0.351c0.154,0.157,0.33,0.333,0.526,0.527c0.194,0.196,0.37,0.216,0.526,0.059  c0.077-0.077,0.352-0.194,0.82-0.351c0.234-0.077,0.428-0.117,0.585-0.117c0.155,0,0.39,0.04,0.702,0.117  c0.546,0.157,1.014,0.196,1.406,0.117l0.117,0.117c0,0.157,0.076,0.313,0.233,0.468c0.39,0.547,0.761,0.977,1.112,1.288  c0.352,0.313,0.645,0.626,0.879,0.937c-0.079,0.158-0.275,0.313-0.586,0.469l-0.82,0.819c-0.312-0.077-0.547-0.117-0.702-0.117  c-0.157,0-0.157,0.196,0,0.585c0.077,0.079,0.117,0.137,0.117,0.176c0,0.04,0.038,0.099,0.117,0.176  c-0.313,0.547-0.547,1.094-0.702,1.639H64.76l0.352,0.703l-0.117,0.234c-0.234,0.234-0.43,0.468-0.586,0.703  c-0.156,0.157-0.293,0.333-0.409,0.527c-0.117,0.196-0.255,0.333-0.41,0.41c-0.157,0-0.255,0.137-0.292,0.41  c-0.041,0.274-0.059,0.527-0.059,0.761l-0.938,0.352l0.234,1.756l-1.639,0.702l0.234,1.522l-1.641,0.819l1.406,0.82l-1.522,1.171  l0.468,0.468h-0.585l-0.351,0.468l-2.459-1.405l0.702,2.81l-4.566-1.873l3.278,3.396l-1.639-1.054l1.873,3.864l-2.459-2.927  c0.234,0.625,0.507,1.211,0.819,1.756c0.234,0.468,0.448,0.977,0.644,1.522c0.194,0.547,0.37,1.054,0.527,1.522  c-0.157,0.157-0.254,0.292-0.293,0.41c-0.04,0.117-0.098,0.254-0.176,0.41c-0.233-0.39-0.468-0.703-0.702-0.937  c-0.233-0.234-0.43-0.117-0.585,0.351c-0.158,0.626,0,1.25,0.469,1.874h-0.117l0.351,0.937l-1.522,0.234l0.234,0.937  c-0.312,0.079-0.664,0.041-1.054-0.117c-0.233-0.077-0.392-0.117-0.468-0.117l0.234,0.234c0.076,0.079,0.135,0.176,0.175,0.293  c0.038,0.117,0.136,0.216,0.293,0.292l-0.117,0.117c0.077,0.079,0.155,0.196,0.234,0.351c0.155,0.234,0.155,0.547,0,0.937  c-0.157,0.312-0.234,0.508-0.234,0.585l-1.054,0.351c-0.078-0.311-0.117-0.741-0.117-1.288c0-0.234-0.04-0.428-0.117-0.585  l0.703-1.639l-0.469-3.161l1.404-0.937l-1.521,0.234l-0.117-0.585l-0.351-15.689v3.864c0,1.171-0.02,2.517-0.059,4.04  c-0.04,1.522-0.059,3.064-0.059,4.625v3.864l-0.703,0.117v-3.63c-0.079-1.561-0.117-3.083-0.117-4.566c0-1.482,0-2.81,0-3.981  v-3.981l-0.585,14.636l-1.756,0.234c0.578,0.291,1.027,0.471,1.348,0.545l-3.104-0.428l1.756-0.117  c-0.547-0.234-1.094-0.487-1.639-0.761c-0.547-0.272-1.016-0.486-1.405-0.644c-0.079-0.155-0.137-0.311-0.176-0.468  c-0.04-0.155-0.099-0.311-0.175-0.468c0.39,0.079,0.761,0.099,1.112,0.059c0.351-0.039,0.37-0.252,0.059-0.644  c-0.234-0.39-0.509-0.624-0.82-0.703c-0.313-0.077-0.625-0.117-0.937-0.117l-0.937-0.351l0.585-1.405l-0.819-0.234  c0.077-0.156,0.176-0.311,0.292-0.468c0.117-0.156,0.252-0.311,0.41-0.468l0.351-0.352c-0.079,0.079-0.196,0.117-0.351,0.117h-0.703  v-0.117h-0.468c-0.392,0-0.626-0.155-0.703-0.468c-0.079-0.234-0.196-0.428-0.351-0.585c0.077-0.39,0.194-0.819,0.351-1.288  c0.155-0.468,0.311-0.779,0.468-0.937c0.156-0.077,0.176-0.234,0.059-0.468c-0.117-0.234-0.274-0.428-0.468-0.585  c-0.196-0.156-0.372-0.234-0.527-0.234c-0.157,0-0.157,0.158,0,0.468c0.234,0.469,0.117,0.937-0.352,1.405  c-0.157-0.311-0.333-0.604-0.527-0.878c-0.196-0.273-0.371-0.527-0.527-0.761c-0.234-0.311-0.43-0.545-0.585-0.703l0.117-1.522  l-2.225-2.693L30.571,5.349c0.39,0.86,0.819,1.756,1.288,2.693c0.39,0.86,0.838,1.796,1.347,2.81  c0.507,1.015,1.072,2.069,1.698,3.161c0.545,1.094,1.072,2.148,1.581,3.161c0.507,1.016,0.955,1.952,1.347,2.811  c0.155,0.391,0.311,0.761,0.468,1.112c0.155,0.351,0.311,0.644,0.468,0.878c0.156,0.313,0.272,0.585,0.351,0.82  C39.039,22.795,39.001,22.835,39.001,22.912z M65.697,69.395H65.58c-0.158,0-0.234-0.037-0.234-0.117  C65.422,69.357,65.539,69.395,65.697,69.395z M61.716,68.81l0.468,0.702l-0.234,0.586l-0.702-0.937L61.716,68.81z M65.697,53.705  H65.58c-0.158,0-0.234-0.038-0.234-0.117C65.422,53.667,65.539,53.705,65.697,53.705z M61.716,53.12l0.468,0.702l-0.234,0.586  l-0.702-0.938L61.716,53.12z M66.165,6.52h-0.117c-0.079,0-0.117-0.038-0.117-0.117L66.165,6.52z M53.285,6.52  c-0.312,0.079-0.547,0.099-0.702,0.059C52.426,6.54,52.27,6.52,52.115,6.52c0.154-0.155,0.623-0.234,1.404-0.234  c0.156,0,0.252,0.02,0.293,0.059c0.038,0.04,0.097,0.058,0.176,0.058C53.909,6.481,53.676,6.52,53.285,6.52z M55.158,6.871V6.402  l0.234,0.234L55.158,6.871z M62.535,6.871l-0.586-0.469l0.469-0.117l0.469,0.234L62.535,6.871z M68.272,11.438  c0,0.079-0.021,0.117-0.059,0.117c-0.04,0-0.059,0.041-0.059,0.117l-0.233,0.234C67.998,11.75,68.115,11.595,68.272,11.438z   M64.994,16.589l0.937-0.351l0.352,0.703l-1.288,0.351V16.589z M60.662,26.659l0.469,0.585l-0.938-0.585H60.662z M58.145,30.405  c0.039-0.311,0.252-0.819,0.645-1.522c0.076-0.156,0.233-0.352,0.468-0.585c0.155,0.234,0.117,0.625-0.117,1.171  c-0.233,0.468-0.43,0.819-0.585,1.054c-0.158,0.234-0.275,0.43-0.352,0.585C58.125,30.952,58.104,30.718,58.145,30.405z   M40.588,52.887c1.36,0.078,2.042,0.156,2.042,0.233v0.117c-0.331,0.133-1.031,0.204-2.058,0.226L40.588,52.887z M48.25,67.873  c0.156-0.311,0.293-0.604,0.41-0.878c0.117-0.272,0.018-0.37-0.293-0.293c-0.547,0.079-0.898,0.431-1.054,1.054l-0.468,0.586  l-0.585-1.055l-0.468,0.586c-0.234-0.234-0.352-0.545-0.352-0.937v-0.469c-0.079,0.157-0.117,0.274-0.117,0.352  c-0.079,0.157-0.117,0.255-0.117,0.292c0,0.041-0.041,0.138-0.117,0.293v-0.117c0,0.158-0.041,0.275-0.117,0.352  c-0.157,0.234-0.351,0.352-0.585,0.352h-0.351c-0.626-0.624-0.977-1.131-1.054-1.522c0-0.155-0.079-0.233-0.234-0.233  c-0.157,0-0.333,0.02-0.527,0.059c-0.196,0.039-0.313,0.117-0.351,0.233c-0.041,0.117,0.058,0.216,0.292,0.293  c0.311,0.079,0.545,0.392,0.703,0.937c-0.626,0-1.054,0.041-1.288,0.117c-0.234,0.078-0.43,0.157-0.585,0.234L40.2,67.315  l0.331-12.272l0.695-0.869l0.702,0.469c0.39,0.234,0.82,0.312,1.288,0.234c0.39-0.156,0.624-0.273,0.703-0.352  c0.077-0.077,0.272-0.077,0.585,0c0.155,0,0.311,0.234,0.468,0.702c0.003,0.009,0.004,0.017,0.007,0.026l-1.997,4.189  c0.468-0.858,0.937-1.757,1.405-2.693c0.196-0.433,0.408-0.88,0.634-1.342c0.041,0.152,0.068,0.293,0.068,0.404l0.703-1.17  l0.331,0.91c-0.193,0.382-0.383,0.746-0.565,1.08l-1.522,3.044l3.075-5.178l0.204,0.611c0.234,0,0.507-0.038,0.82-0.116  c0.211-0.07,0.423-0.105,0.635-0.111c0.048,0.318,0.108,0.629,0.184,0.93c-0.157,0.313-0.292,0.605-0.41,0.879  c-0.117,0.274-0.254,0.488-0.41,0.645l-0.352,0.701l1.288-1.17v0.352l-1.288,2.107h0.937l-2.342,1.639l2.576,0.82l-0.234,0.936  c-0.158-0.076-0.313-0.193-0.469-0.351l-0.117-0.117l-0.117,3.864l1.719,0.688c-0.026,0.043-0.053,0.088-0.08,0.132  c-0.234,0.392-0.468,0.743-0.703,1.054C48.64,67.99,48.406,67.951,48.25,67.873z M50.709,61.551c0,0.312-0.079,0.625-0.234,0.936  c-0.157-0.311-0.234-0.779-0.234-1.404c-0.079-0.624-0.099-1.131-0.059-1.521c0.039-0.391,0.059-0.703,0.059-0.938  c0.155,0.158,0.272,0.41,0.351,0.762C50.669,59.735,50.709,60.458,50.709,61.551z M50.475,64.945l-0.351,0.352l-0.585-0.469  L50.475,64.945z M51.898,53.49c-0.195,0.002-0.37-0.016-0.525-0.053c0.014-0.107,0.026-0.215,0.029-0.332  c0.025-0.016,0.041-0.027,0.068-0.044L51.898,53.49z M48.485,52.184c0.004,0.022,0.008,0.051,0.012,0.074  c-0.018-0.004-0.031-0.01-0.048-0.015L48.485,52.184z M48.349,51.019c-0.535,0.085-0.881,0.432-1.035,1.048l-0.468,0.586  l-0.198-0.357c0.251-0.457,0.509-0.92,0.784-1.399c0.155-0.234,0.39-0.662,0.703-1.288l0.702,0.468  C48.668,50.39,48.511,50.704,48.349,51.019z M50.417,86.841c-0.041,0.079-0.059,0.196-0.059,0.352v-0.352  c0-0.155,0.038-0.272,0.117-0.351C50.475,86.646,50.455,86.764,50.417,86.841z M50.241,80.284l-0.585-0.468l0.819-1.289l0.352,0.82  L50.241,80.284z M54.223,69.98l0.117-0.937l0.116,0.351L54.223,69.98z M59.022,68.225l-0.937-1.055l-0.82,0.703l-0.936-0.82  l-0.117,1.406l-1.172-0.82l-0.116,0.469l-0.117-0.469H54.34l0.233-2.576l-0.944,1.019l0.021-0.576l0.338-0.677l-0.32,0.203  l0.086-2.311l3.746,1.757l-4.332-4.566l1.64,0.117l-3.044-3.161l0.383,0.213l0.085,0.256l0.034-0.189l2.659,1.477  c-0.548-0.469-1.016-0.937-1.405-1.404c-0.349-0.348-0.695-0.766-1.042-1.238l0.222-1.221l0.469,0.234  c-0.078,0.156-0.117,0.312-0.117,0.468c0,0.079-0.04,0.117-0.117,0.117l0.913,1.217c-0.007,0.06-0.008,0.114,0.024,0.13  c0.02,0.01,0.049,0,0.072,0l1.098,1.463l0.109-2.012c0.042,0.007,0.086,0.002,0.125,0.021c0.234,0.234,0.429,0.509,0.586,0.82  c0.076,0.156,0.117,0.312,0.117,0.468h0.117c0.076,0,0.272,0.079,0.585,0.234c0.469,0.626,0.819,1.132,1.054,1.522  s0.273,0.351,0.117-0.117l-0.117-0.117c0.156,0.156,0.156,0.078,0-0.234c-0.234-0.624-0.195-1.131,0.117-1.522  c0.156-0.233,0.311-0.39,0.469-0.468c-0.158-0.077-0.312-0.194-0.469-0.352c-0.305-0.303-0.344-0.607-0.129-0.912l0.598,1.146  l0.081-1.789c0.013-0.009,0.022-0.017,0.036-0.025c0.173-0.122,0.336-0.243,0.494-0.364l0.643,12.983L59.022,68.225z M56.963,54.267  c-0.062,0.031-0.129,0.069-0.188,0.095l0.141-0.188L56.963,54.267z M56.246,52.365l-0.033,0.404l-0.261-0.183  C56.066,52.508,56.164,52.434,56.246,52.365z M52.816,48.554l-0.233,0.937h-0.745l0.031-0.421l0.012-0.047h0.117v-0.117l0.233-0.819  L52.816,48.554z M51.646,43.753c0.076-0.077,0.193-0.273,0.352-0.585c-0.079,0.157-0.158,0.351-0.234,0.585  c-0.079,0.234-0.196,0.508-0.352,0.819L51.646,43.753z M50.007,34.854l0.585-0.351v2.107l-0.585-0.234V34.854z M50.592,37.196v0.937  c-0.079,0.392-0.117,0.781-0.117,1.171c0,0.392,0,0.743,0,1.054l-0.351,0.117v-1.99c-0.079-0.234-0.117-0.585-0.117-1.054  L50.592,37.196z M48.953,33.45v0.234l-0.819,0.117L48.953,33.45z M49.07,38.953l-0.468,0.117l0.234-0.352L49.07,38.953z   M45.499,34.737c0.194,0.234,0.487,0.703,0.878,1.405c0.077,0.234,0.117,0.509,0.117,0.82c-0.157-0.077-0.292-0.156-0.41-0.234  c-0.117-0.077-0.254-0.272-0.41-0.585c-0.468-0.937-0.703-1.522-0.703-1.756C45.128,34.386,45.303,34.503,45.499,34.737z   M47.314,38.602L47.08,39.07h-0.702L47.314,38.602z M44.738,38.133c0,0.158,0.077,0.372,0.234,0.644  c0.156,0.274,0.311,0.567,0.468,0.878c0.234,0.312,0.428,0.664,0.585,1.054l-0.117,5.62l1.405-5.971l0.351,0.351v0.585l-0.468,0.234  l0.468,0.469v0.351l0.585,0.351h0.117l0.117,1.288l0.351,0.234c0.077,0.392,0.117,0.819,0.117,1.288l-0.234,0.937  c-0.158,0.157-0.392,0.312-0.703,0.468c-0.157,0.079-0.274,0.117-0.352,0.117l0.703,0.703l-0.234,0.819l-0.234,0.468l-0.234,0.234  l0.117,0.117l-1.273,2.671l-0.249-0.447l-0.468,0.586c-0.234-0.234-0.352-0.545-0.352-0.938v-0.468  c-0.079,0.157-0.117,0.274-0.117,0.352c-0.079,0.157-0.117,0.254-0.117,0.292c0,0.041-0.041,0.138-0.117,0.293v-0.117  c0,0.158-0.041,0.275-0.117,0.352c-0.157,0.234-0.351,0.352-0.585,0.352h-0.351c-0.025-0.025-0.043-0.049-0.068-0.073L44.738,38.133  z M41.226,29.234l0.468,1.171c-0.079,0.234-0.079,0.509,0,0.82c0.077,0.234,0.176,0.527,0.292,0.878  c0.117,0.351,0.293,0.684,0.527,0.995c-0.079,0.313-0.117,0.606-0.117,0.878c0,0.274-0.041,0.488-0.117,0.644  c-0.079,0.234-0.117,0.43-0.117,0.585l0.82-1.405l0.234,0.234l-0.585,2.107l1.054-0.585l0.222,16.605  c-0.538-0.559-0.853-1.022-0.924-1.384c0-0.155-0.079-0.234-0.234-0.234c-0.157,0-0.333,0.02-0.527,0.058  c-0.196,0.041-0.313,0.117-0.351,0.234c-0.041,0.117,0.058,0.216,0.292,0.293c0.311,0.079,0.545,0.392,0.703,0.937  c-0.626,0-1.054,0.04-1.288,0.117c-0.234,0.078-0.43,0.157-0.585,0.234l-0.38-0.381L41.226,29.234z"/></svg>