<svg xmlns="http://www.w3.org/2000/svg" xmlns:xlink="http://www.w3.org/1999/xlink" version="1.1" x="0px" y="0px" viewBox="0 0 98 122.5" enable-background="new 0 0 98 98" xml:space="preserve"><path d="M78.268,71.501c-0.082-0.04-0.163-0.101-0.243-0.182c-0.081-0.08-0.142-0.162-0.182-0.242  c-0.042-0.08-0.103-0.162-0.181-0.243l-0.122-0.121c0-0.079,0.04-0.161,0.122-0.243l0.362-0.363l0.485-0.728  c-0.082,0-0.163-0.039-0.242-0.12c-0.324-0.161-0.527-0.283-0.605-0.364l-0.971-0.484c0-0.079,0.04-0.161,0.121-0.243  c0.08-0.079,0.121-0.14,0.121-0.182c0-0.04,0.039-0.101,0.121-0.183c0-0.078,0.08-0.2,0.243-0.362l0.121-0.122v-0.121  c-0.082-0.08-0.121-0.201-0.121-0.362c-0.082-0.162-0.163-0.344-0.243-0.547c-0.082-0.201-0.162-0.424-0.242-0.667l-0.363-0.727  c0-0.161-0.042-0.282-0.121-0.363c-0.082-0.081-0.163-0.202-0.243-0.364c-0.162-0.404-0.363-0.807-0.606-1.213  c0-0.888-0.041-1.494-0.121-1.817v-0.728l-0.241,1.213c-0.082,0.08-0.122,0.242-0.122,0.484c-0.081-0.08-0.121-0.14-0.121-0.182  c0-0.04-0.041-0.101-0.121-0.182v-0.729c0-0.242-0.021-0.485-0.061-0.727c-0.042-0.242-0.061-0.444-0.061-0.605  c-0.081-0.08-0.122-0.201-0.122-0.364v-0.121l-0.727,0.485c0-0.08,0.039-0.201,0.121-0.364c0.079-0.162,0.122-0.321,0.122-0.485  c0-0.16,0.039-0.321,0.121-0.485c0.079-0.159,0.12-0.321,0.12-0.484c0-0.16,0.04-0.322,0.121-0.484v-0.363  c-0.081,0.081-0.202,0.121-0.362,0.121c-0.163,0.081-0.284,0.121-0.364,0.121c-0.082,0-0.203,0.041-0.364,0.121  c-0.163,0.081-0.302,0.122-0.424,0.122c-0.121,0-0.264,0.04-0.424,0.12c-0.163,0.082-0.284,0.121-0.364,0.121v-0.121  c0-0.08-0.021-0.141-0.061-0.181c-0.042-0.041-0.061-0.102-0.061-0.183l-0.242-0.485h0.242h0.363l-0.121-0.121  c0-0.079-0.081-0.2-0.242-0.364l-0.97-0.97c-0.163-0.16-0.263-0.281-0.304-0.362c-0.041-0.08-0.142-0.162-0.302-0.243l-0.485-0.485  c-0.081-0.078-0.142-0.121-0.183-0.121s-0.102-0.039-0.182-0.121c-0.081,0-0.12-0.039-0.12-0.121c-0.082,0-0.164,0.042-0.243,0.121  c-0.162,0.164-0.363,0.242-0.606,0.242c-0.323,0.163-0.526,0.284-0.605,0.364c-0.082,0-0.121-0.02-0.121-0.061  c0-0.04-0.042-0.061-0.122-0.061c-0.081-0.08-0.143-0.121-0.182-0.121c-0.041,0-0.102-0.041-0.182-0.122l-0.484-0.485l0.242-0.362  h-0.121c-0.082,0-0.121-0.02-0.121-0.061c0-0.04-0.042-0.061-0.121-0.061l-0.485-0.243c-0.081-0.08-0.122-0.161-0.122-0.241  l-0.121-0.122h-0.848h-0.122c-0.08,0-0.162-0.04-0.242-0.121l-0.363-0.364c-0.242-0.242-0.405-0.363-0.485-0.363l-0.242-0.243  h-0.363c-0.242,0-0.445-0.039-0.606-0.121h-0.363l-0.242-0.242h-0.121h-0.485c-0.163-0.161-0.363-0.242-0.606-0.242  c-0.081-0.08-0.162-0.14-0.242-0.182c-0.082-0.04-0.163-0.1-0.242-0.182l-0.243-0.121h-0.12h-0.729l-0.363-0.727  c-0.163-0.162-0.324-0.322-0.484-0.485c-0.163-0.162-0.323-0.322-0.485-0.485c-0.566-0.404-0.97-0.485-1.212-0.243  c-0.324,0.163-0.566,0.243-0.728,0.243c-0.163,0.082-0.345,0.121-0.546,0.121c-0.202,0-0.384,0.042-0.545,0.122  c-0.242,0.081-0.526,0.121-0.849,0.121h-0.363h-0.243c-0.081,0-0.162-0.019-0.242-0.061c-0.081-0.04-0.163-0.061-0.242-0.061h-1.818  c-0.809,0-1.497,0.121-2.061,0.363c-0.648,0.243-1.173,0.567-1.576,0.97c-0.243-0.161-0.466-0.261-0.667-0.303  c-0.203-0.04-0.385-0.1-0.546-0.182l0.243-0.485c0.161-0.485,0.243-0.807,0.243-0.97c0.564,0,0.686-0.161,0.363-0.484l-0.241-0.243  c0-0.485-0.082-0.97-0.243-1.455l0.484-0.121l-0.484-0.364l-0.122-0.243c0-0.242,0.04-0.485,0.122-0.727  c0-0.322,0.08-0.646,0.243-0.97c0.161-0.08,0.079-0.403-0.243-0.97l0.484-0.606l-0.727-1.091l0.606-0.849l0.12,1.818v-2.061  l0.122-2.303v-3.879h0.364l0.122,0.363l0.121-0.485l3.03-0.363l-1.575-0.485l1.697,0.121l0.363-1.455l0.364-0.122l0.484,0.122  l0.728,17.092l0.242-15.879l-0.242-0.728l0.484-0.364v-0.121l0.97,0.363l0.85-0.242h0.241h0.729l0.605,7.395l0.364-7.395  c0,0.242,0.079,0.445,0.242,0.606c0.161,0.242,0.382,0.505,0.666,0.788c0.282,0.284,0.504,0.303,0.668,0.061  c0.078-0.161,0.403-0.322,0.969-0.485c0.243-0.079,0.484-0.121,0.728-0.121c0.485,0.163,0.97,0.284,1.455,0.364  c0.969,0.163,1.776-0.04,2.424-0.606l0.363-0.364c0.162,0.324,0.283,0.527,0.364,0.606c0.403,0.405,0.546,0.405,0.424,0  c-0.121-0.404-0.061-0.686,0.183-0.849c0.079-0.08,0.321-0.121,0.727-0.121c0.161,0,0.282,0.042,0.364,0.121v-0.121l0.363-0.243  c0.646-0.161,1.151-0.221,1.515-0.182c0.364,0.042,0.343,0.021-0.061-0.061c-0.081,0-0.121-0.04-0.121-0.121h-0.242  c-0.484-0.08-0.809-0.282-0.97-0.606c-0.081-0.161-0.121-0.282-0.121-0.363c-0.163,0.082-0.324,0.121-0.484,0.121  c-0.325,0-0.566-0.079-0.729-0.242c-0.081-0.08-0.12-0.261-0.12-0.545c0-0.282,0.019-0.545,0.06-0.788  c0.04-0.243,0.04-0.403,0-0.485c-0.041-0.079-0.181,0.042-0.424,0.364c-0.162,0.405-0.303,0.788-0.425,1.151  c-0.121,0.364-0.263,0.667-0.423,0.91c-0.164,0-0.265-0.02-0.304-0.061c-0.041-0.04-0.102-0.061-0.182-0.061  c-0.163-0.161-0.324-0.243-0.485-0.243c-0.163,0-0.324-0.039-0.484-0.121c0-0.564-0.163-0.646-0.485-0.243l-0.243,0.243  c-0.241-0.08-0.505-0.101-0.787-0.061c-0.284,0.042-0.506,0.061-0.666,0.061l-0.122-0.364l-0.363,0.484h-0.243  c-0.241,0-0.484-0.039-0.727-0.121c-0.485,0-0.809-0.08-0.97-0.243c-0.082-0.161-0.405-0.08-0.97,0.243l-0.485-0.485l-1.212,0.728  l-1.091-0.848l-0.97,0.606l-1.212-0.728l-0.122,1.212l-1.333-0.606l-0.243,0.364l-0.122-0.364h-0.484l0.121-2.182l-1.819,1.333  l-0.363-3.637l-1.092,3.395l0.122-1.455l-0.363,0.364c-0.082-0.322-0.364-0.564-0.85-0.728l-0.484-0.606l0.849-0.728l-0.485-0.485  l0.728-0.364c0.161-0.08,0.321-0.121,0.484-0.121c-0.081,0-0.163-0.04-0.241-0.122c-0.243,0-0.446-0.08-0.607-0.243h0.122  c-0.163,0-0.284-0.04-0.364-0.121c-0.242-0.242-0.363-0.485-0.363-0.727v-0.485c0.161-0.243,0.363-0.504,0.605-0.788  c0.243-0.282,0.444-0.424,0.607-0.424c0.161,0,0.241-0.121,0.241-0.364c0-0.242-0.041-0.464-0.12-0.667  c-0.082-0.201-0.164-0.322-0.243-0.363c-0.082-0.04-0.163,0.061-0.243,0.303c0,0.485-0.202,0.809-0.606,0.97  c0-0.322-0.081-0.807-0.242-1.455c-0.082-0.242-0.122-0.485-0.122-0.727l0.484-1.092l-0.605-2.788l-0.606-9.577v2.424  c0,0.728,0.019,1.557,0.061,2.485c0.041,0.93,0.061,1.839,0.061,2.727c0.08,0.97,0.122,1.921,0.122,2.849c0,0.93,0,1.758,0,2.485  c0,1.618-0.042,2.424-0.122,2.424c-0.163-0.485-0.284-1.555-0.363-3.212c-0.082-1.656-0.163-3.374-0.243-5.152  c-0.082-2.101-0.163-4.364-0.243-6.788l-0.364,9.698l-0.727,2.788l0.969,0.969c-0.081,0.243-0.163,0.527-0.243,0.849  c-0.081,0.242-0.141,0.526-0.181,0.848c-0.042,0.324-0.021,0.606,0.06,0.849c0.162,0.485,0.262,0.769,0.303,0.848  c0.041,0.082,0.061,0.284,0.061,0.606c0,0.163-0.788,0.566-2.364,1.212c-1.575,0.648-3.394,1.334-5.455,2.061  c-2.06,0.728-4.061,1.436-6,2.121c-1.939,0.688-3.273,1.152-4.001,1.395l17.698-5.212l-0.97,0.727l1.576,0.727l-0.849,0.485  c0,0.243,0.041,0.527,0.121,0.849c0.08,0.242,0.141,0.526,0.182,0.849c0.041,0.324,0.1,0.648,0.182,0.97l-0.364,0.364  c-0.163,0-0.302-0.019-0.423-0.061c-0.122-0.04-0.264-0.061-0.425-0.061c0.161-0.242,0.303-0.484,0.425-0.727  c0.121-0.243-0.021-0.322-0.425-0.243c-0.405,0.081-0.666,0.203-0.788,0.363c-0.121,0.163-0.264,0.324-0.424,0.485l-0.606,0.485  l-0.728-0.849l-0.484,0.484c-0.163-0.161-0.243-0.282-0.243-0.363c0-0.08-0.042-0.201-0.122-0.363  c-0.082-0.162-0.121-0.283-0.121-0.364l-0.243,0.728l-0.122-0.121c0,0.163-0.042,0.284-0.121,0.364  c-0.242,0.242-0.484,0.363-0.727,0.363s-0.405-0.04-0.484-0.121c-0.648-0.322-1.051-0.728-1.212-1.212  c0-0.079-0.122-0.121-0.364-0.121s-0.445,0.021-0.606,0.061c-0.163,0.042-0.263,0.103-0.302,0.182  c-0.042,0.081,0.061,0.163,0.302,0.243c0.403,0.081,0.687,0.323,0.849,0.727c-0.243,0-0.506,0.021-0.789,0.061  c-0.284,0.042-0.505,0.061-0.666,0.061c-0.324,0.082-0.566,0.121-0.727,0.121l-1.092-0.606l-2.788,0.606l-4.122,0.122l-5.455,0.121  c0.727,0.082,1.534,0.121,2.425,0.121h5.211c0.971,0,1.919,0,2.849,0c0.928,0,1.758,0.042,2.485,0.121  c1.616,0,2.424,0.042,2.424,0.122v0.121c-0.566,0.082-1.657,0.142-3.272,0.182c-1.618,0.042-3.315,0.061-5.092,0.061  c-2.102,0.082-4.363,0.121-6.788,0.121l9.577,0.485l2.788,0.97l1.091-0.97c0.243,0.163,0.524,0.284,0.849,0.364  c0.645,0.163,1.17,0.203,1.575,0.121c0.485-0.161,0.768-0.261,0.849-0.303c0.079-0.04,0.322-0.061,0.727-0.061  c0.161,0.081,0.303,0.93,0.425,2.546c0.12,1.617,0.261,3.394,0.423,5.333l0.243,7.758l0.485-15.516l0.605,4.485l0.727-4.97  l0.607,0.849c0.08-0.08,0.242-0.122,0.484-0.122c0.162,0,0.344,0,0.546,0c0.202,0,0.425-0.04,0.667-0.121l-1.575,0.848l2.182,0.485  l-0.243,0.606l-0.484-0.242v2.303l1.454,0.363l0.122,0.485l-0.243,0.364h-0.363l0.122,0.485l-0.122,0.363l0.363,0.364h0.121  l-0.363,1.091l0.363,0.727l-0.121,0.242l0.121,0.364l-0.242,0.848l0.242,0.485c-0.323,0.163-0.526,0.243-0.605,0.243  c-0.243,0.163-0.505,0.405-0.788,0.727c-0.284,0.324-0.303,0.566-0.061,0.727c0.161,0.082,0.321,0.406,0.484,0.97l0.243,0.727  c-0.163,0.485-0.284,0.93-0.364,1.333c-0.081,0.405-0.081,0.83,0,1.273c0.08,0.445,0.322,0.83,0.728,1.151  c0.161,0.163,0.242,0.284,0.242,0.363c-0.081,0.082-0.163,0.142-0.242,0.182c-0.082,0.042-0.163,0.142-0.243,0.303  c-0.405,0.405-0.405,0.545,0,0.424c0.403-0.121,0.686-0.101,0.848,0.061c0.08,0.163,0.122,0.323,0.122,0.484  c0,0.164,0,0.324,0,0.485c-0.082,0.081-0.163,0.121-0.243,0.121c-0.081,0-0.163,0.042-0.243,0.121  c-0.163,0.163-0.324,0.243-0.484,0.243l-0.485,0.242H43.84v0.122c0,0.08-0.081,0.202-0.241,0.362l-0.243,0.243  c-0.082,0.082-0.143,0.12-0.182,0.12c-0.042,0-0.102,0.042-0.182,0.121c-0.648,0.567-1.151,0.991-1.516,1.274  c-0.363,0.283-0.302,0.263,0.182-0.061h0.048c0.039-0.035,0.097-0.073,0.194-0.122c0.08,0,0.161-0.04,0.243-0.121  c0.403-0.162,0.727-0.261,0.97-0.304c0.243-0.04,0.443-0.061,0.605-0.061c0.08,0.081,0.141,0.122,0.182,0.122  c0.041,0,0.101,0.041,0.182,0.121l0.122,0.121l0.485-0.485c0.161-0.079,0.343-0.16,0.545-0.242c0.201-0.079,0.383-0.122,0.546-0.122  l0.121,0.122c0.079,0.163,0.121,0.203,0.121,0.121c0.08,0.164,0.182,0.364,0.303,0.606c0.121,0.243,0.201,0.445,0.243,0.606  c0.04,0.162,0.1,0.242,0.182,0.242c0.08,0,0.161-0.201,0.243-0.605c0.161-0.485,0.241-0.929,0.241-1.335  c0-0.402,0.08-0.767,0.243-1.09c0.243-0.08,0.525-0.121,0.85-0.121c0.242,0.08,0.484,0.102,0.727,0.061s0.485-0.061,0.727-0.061  c0.162,0.485,0.444,0.525,0.85,0.121c0.161-0.162,0.241-0.283,0.241-0.364c0.162,0,0.343-0.019,0.546-0.061  c0.2-0.04,0.383-0.061,0.545-0.061c0.243-0.079,0.444-0.121,0.606-0.121c0.161,0,0.322-0.04,0.485-0.122  c0.079,0.082,0.121,0.143,0.121,0.183c0,0.042,0.04,0.103,0.121,0.182c0,0.081,0.04,0.121,0.121,0.121  c0.08,0,0.121-0.04,0.121-0.121c0-0.079,0.04-0.161,0.122-0.242l0.242-0.243h0.121h0.121h0.363c0.162,0,0.304,0.021,0.425,0.061  c0.121,0.043,0.261,0.061,0.425,0.061h0.362c0.161,0.082,0.323,0.122,0.485,0.122c0.322,0.163,0.484,0.284,0.484,0.363  c0.323,0.163,0.687,0.163,1.091,0c0.243,0,0.405-0.04,0.485-0.121l0.243,0.243c0.08,0.162,0.16,1.332,0.242,3.515  c0.079,2.183,0.161,4.606,0.242,7.272c0.08,3.152,0.121,6.668,0.121,10.548l0.242-10.184c0.08-2.585,0.141-4.909,0.183-6.97  c0.039-2.061,0.1-3.131,0.182-3.212c0.08,0,0.061-0.101-0.061-0.304c-0.121-0.201-0.143-0.303-0.061-0.303h0.364  c0.16,0,0.261-0.02,0.302-0.061c0.041-0.04,0.141-0.061,0.304-0.061h0.363l0.606,0.605c0.079,0.163,0.161,0.627,0.242,1.395  c0.08,0.769,0.161,1.636,0.243,2.606c0.079,1.132,0.16,2.384,0.242,3.757c0.079-1.291,0.161-2.464,0.241-3.515  c0.08-0.889,0.141-1.697,0.183-2.424c0.04-0.729,0.141-1.092,0.303-1.092c0.243,0,0.443,0.042,0.607,0.121h0.241l0.242,0.242  c0.08,0.081,0.141,0.163,0.183,0.243c0.039,0.081,0.1,0.163,0.182,0.242l0.484,0.485l0.121,0.242l0.729-0.97l0.241,0.242  c0.08,0.081,0.141,0.183,0.183,0.304c0.04,0.121,0.14,0.223,0.303,0.302l0.728,0.97c0-0.078,0.04-0.121,0.121-0.121  c0.08,0,0.201-0.039,0.363-0.121C67.64,56.209,67.6,56.369,67.6,56.53v0.121l0.606,0.364l-0.121,0.121l-1.455,1.454h0.122  c0.079,0,0.121,0.021,0.121,0.061c0,0.042,0.079,0.061,0.242,0.061c0.079,0,0.363,0.082,0.849,0.242  c0.161,0.081,0.321,0.122,0.484,0.122c0.161,0,0.322,0.041,0.485,0.121c0.08,0,0.141,0.021,0.182,0.061  c0.039,0.041,0.101,0.061,0.182,0.061h0.122l-0.485,0.485c-0.163,0.162-0.304,0.323-0.425,0.484  c-0.121,0.163-0.263,0.324-0.424,0.484c-0.082,0.082-0.143,0.527-0.182,1.334c-0.042,0.81-0.042,1.839,0,3.091  c0.039,1.254,0.08,2.648,0.121,4.182c0.039,1.536,0.061,3.112,0.061,4.728c0.079,3.8,0.2,8.043,0.363,12.729  c0-4.283,0.04-8.122,0.121-11.516c0-1.454,0.04-2.889,0.121-4.303c0.08-1.414,0.141-2.668,0.183-3.759  c0.039-1.091,0.1-1.979,0.182-2.666c0.08-0.687,0.2-1.031,0.364-1.031c0.16,0,0.241-0.16,0.241-0.485c0-0.321,0-0.645,0-0.969  c0.322,0.162,0.807,0.283,1.455,0.363c0.161,0.082,0.364,0.143,0.606,0.183c0.242,0.041,0.443,0.102,0.605,0.182  c0.08,0.082,0.243,0.12,0.485,0.12c0.079,0,0.121,0.043,0.121,0.121h-0.484c-0.485,0-0.849-0.039-1.092-0.121h-1.091  c-0.082,0.082-0.203,0.121-0.363,0.121h0.121c0.08,0,0.141,0.021,0.182,0.061c0.04,0.043,0.141,0.062,0.304,0.062  c0.241,0.163,0.503,1.012,0.787,2.545c0.282,1.537,0.545,4.001,0.788,7.396c0,0.08,0.04-0.322,0.121-1.213  c0.08-0.889,0.182-1.897,0.304-3.03c0.121-1.131,0.242-2.161,0.363-3.091c0.122-0.929,0.222-1.394,0.303-1.394  c0.162,0.162,0.303,0.283,0.425,0.363c0.121,0.081,0.262,0.162,0.425,0.242c0.078,0.082,0.16,0.121,0.241,0.121v0.12  c0,0.083,0.02,0.143,0.061,0.183c0.04,0.042,0.061,0.103,0.061,0.182c0,0.164,0.041,0.285,0.121,0.364v0.364l-0.121-0.122  c-0.323-0.161-0.586-0.261-0.787-0.303c-0.202-0.04-0.224,0.182-0.061,0.667c0.242,0.566,0.442,0.931,0.606,1.09  c0.16,0.164,0.403,0.324,0.727,0.485l0.728,0.85l-0.122,0.121c-0.162,0.162-0.241,0.323-0.241,0.484  c-0.164,0.163-0.243,0.284-0.243,0.363l-0.121,0.242l0.121,0.121c0,0.082,0.079,0.203,0.243,0.364l0.12,0.242  c0,0.081-0.081,0.202-0.241,0.364c-0.243,0.243-0.446,0.363-0.607,0.363h-0.242c0,0.082,0.04,0.121,0.121,0.121  c0.08,0.082,0.162,0.121,0.243,0.121l0.485,0.243l-0.122,0.12c0.079,0,0.161,0.083,0.243,0.242c0.079,0.164,0.16,0.325,0.241,0.485  c0.08,0.163,0.122,0.364,0.122,0.607v0.727c-0.163,0.163-0.324,0.405-0.484,0.727c-0.163,0.164-0.265,0.285-0.304,0.364  c-0.041,0.081-0.143,0.202-0.304,0.364c-0.162,0.162-0.323,0.242-0.483,0.242c-0.163,0-0.265,0.142-0.304,0.424  c-0.042,0.284-0.061,0.587-0.061,0.909c0,0.323,0.019,0.546,0.061,0.667c0.039,0.121,0.141-0.02,0.304-0.425  c0.16-0.645,0.524-1.049,1.091-1.212c-0.082,0.163-0.122,0.303-0.122,0.425c0,0.12-0.041,0.263-0.121,0.423  c0,0.243-0.041,0.445-0.121,0.607c0,0.242-0.042,0.444-0.121,0.606c0,0.161-0.021,0.323-0.061,0.484  c-0.042,0.162-0.062,0.324-0.062,0.484v0.363l-1.212,1.214v0.241l-0.242,0.484c-0.081,0.164-0.142,0.364-0.182,0.606  c-0.042,0.243-0.143,0.485-0.303,0.729c-0.324,0.646-0.527,1.09-0.606,1.332l-0.242,0.485l-0.121,0.121  c0,0.081-0.043,0.163-0.121,0.243l-0.122,0.121c0,0.081-0.021,0.121-0.061,0.121c-0.041,0-0.061,0.041-0.061,0.121  c-0.162,0.162-0.323,0.344-0.485,0.546c-0.162,0.203-0.362,0.466-0.605,0.787c-0.485,0.485-1.052,1.052-1.697,1.697  c-0.647,0.648-1.375,1.213-2.182,1.698c-0.728,0.565-1.536,1.05-2.425,1.453c-0.405,0.243-0.787,0.425-1.151,0.546  c-0.363,0.122-0.748,0.264-1.151,0.424c-0.81,0.324-1.375,0.527-1.697,0.605c-0.162,0.083-0.324,0.122-0.485,0.122h0.122  c0.079,0,0.363-0.079,0.848-0.242c0.162-0.08,0.343-0.141,0.546-0.182c0.2-0.04,0.383-0.101,0.545-0.183  c0.243-0.079,0.485-0.16,0.729-0.241c0.242-0.081,0.484-0.162,0.727-0.243c0.243-0.079,0.524-0.201,0.849-0.363  c0.161-0.08,0.303-0.162,0.425-0.243c0.121-0.078,0.262-0.16,0.424-0.242c0.161-0.079,0.322-0.161,0.484-0.243  c0.162-0.078,0.323-0.16,0.485-0.242c0.322-0.16,0.605-0.363,0.849-0.605c0.161-0.08,0.322-0.161,0.485-0.242  c0.16-0.081,0.321-0.201,0.484-0.363c0.161-0.08,0.303-0.183,0.425-0.304c0.121-0.121,0.261-0.222,0.424-0.304  c0.161-0.16,0.303-0.281,0.424-0.363c0.121-0.079,0.262-0.2,0.425-0.363l0.849-0.849l0.848-0.849  c0.162-0.161,0.283-0.304,0.364-0.425c0.08-0.12,0.201-0.261,0.364-0.424c0.242-0.322,0.464-0.625,0.666-0.909  c0.201-0.282,0.383-0.585,0.546-0.909c0.403-0.646,0.767-1.252,1.091-1.818c0.321-0.564,0.605-1.13,0.849-1.696  c0.16-0.322,0.242-0.564,0.242-0.728c0.161-0.322,0.243-0.564,0.243-0.728c0.16-0.322,0.321-0.727,0.484-1.212  c0-0.162,0.019-0.304,0.061-0.425c0.04-0.121,0.061-0.222,0.061-0.304c0-0.078,0.04-0.16,0.121-0.242h0.121  c0,0.242-0.041,0.446-0.121,0.606c0,0.164-0.081,0.566-0.242,1.212c-0.081,0.163-0.122,0.284-0.122,0.364  c0,0.082-0.041,0.203-0.121,0.363c0,0.242-0.081,0.527-0.241,0.849c-0.163,0.324-0.284,0.627-0.364,0.909  c-0.082,0.284-0.202,0.588-0.364,0.909c-0.162,0.323-0.323,0.627-0.484,0.91c-0.162,0.283-0.324,0.586-0.485,0.907  c-0.162,0.325-0.345,0.649-0.545,0.971c-0.203,0.324-0.424,0.647-0.667,0.97c-0.163,0.163-0.284,0.324-0.364,0.484  c-0.08,0.164-0.202,0.324-0.362,0.485l-0.364,0.485c-0.163,0.081-0.323,0.202-0.484,0.364c-0.324,0.323-0.606,0.627-0.85,0.907  c-0.242,0.285-0.526,0.546-0.848,0.789c-0.324,0.242-0.627,0.485-0.909,0.728c-0.284,0.242-0.587,0.445-0.909,0.605  c-0.324,0.242-0.628,0.467-0.909,0.667c-0.284,0.203-0.587,0.384-0.909,0.546c-0.163,0.081-0.304,0.162-0.425,0.242  c-0.12,0.081-0.263,0.163-0.424,0.243c-0.242,0.081-0.526,0.202-0.848,0.362c-0.567,0.243-1.073,0.446-1.516,0.606  c-0.432,0.158-0.806,0.315-1.121,0.471c0.1-0.015,0.207-0.045,0.332-0.107c0.162,0,0.322-0.039,0.485-0.121  c0.08,0,0.141-0.019,0.182-0.061c0.04-0.039,0.141-0.061,0.304-0.061c0.161-0.079,0.343-0.16,0.545-0.243  c0.201-0.078,0.383-0.159,0.546-0.241c0.243,0,0.443-0.08,0.605-0.243c0.161,0,0.403-0.079,0.729-0.241  c0.403-0.243,0.807-0.444,1.212-0.606c0.241-0.162,0.464-0.304,0.666-0.425c0.201-0.121,0.425-0.261,0.667-0.425  c0.807-0.484,1.615-1.05,2.424-1.696c0.162-0.161,0.322-0.321,0.485-0.485c0.161-0.161,0.321-0.321,0.485-0.484  c0.484-0.322,0.807-0.605,0.97-0.849c0.564-0.728,0.97-1.17,1.212-1.334l0.242-0.484l0.121-0.121l0.121-0.121  c0.161-0.161,0.322-0.282,0.485-0.363c0.161-0.162,0.343-0.344,0.545-0.546c0.201-0.2,0.383-0.425,0.546-0.668  c0.484-0.645,0.849-1.09,1.091-1.332c0.08-0.08,0.121-0.162,0.121-0.243c0-0.078,0.04-0.16,0.122-0.242  c0-0.079,0.039-0.121,0.121-0.121v-0.364c0-0.16-0.021-0.281-0.061-0.363c-0.043-0.079-0.061-0.201-0.061-0.362  c0-0.323-0.042-0.565-0.122-0.729v-0.242c0.08-0.079,0.161-0.2,0.243-0.364c0.079-0.161,0.14-0.321,0.182-0.484  c0.04-0.16,0.14-0.322,0.303-0.485c0.16-0.241,0.322-0.686,0.485-1.333c0.16-0.646,0.242-1.09,0.242-1.333v-1.576  c-0.082-0.16-0.103-0.322-0.061-0.484c0.04-0.161,0.061-0.404,0.061-0.728c0-0.403,0.161-0.768,0.484-1.091  c0.161-0.161,0.364-0.243,0.606-0.243c0-0.08-0.042-0.16-0.121-0.242C78.428,71.603,78.347,71.542,78.268,71.501z M63.902,31.014  c0.041,0.042,0.102,0.061,0.182,0.061h-0.242c-0.081,0-0.163-0.04-0.241-0.121C63.761,30.953,63.861,30.974,63.902,31.014z   M59.235,30.589l0.606,0.606l-0.363,0.484l-0.728-0.727L59.235,30.589z M50.266,30.953l0.243,0.243l-0.243,0.484V30.953z   M46.629,39.075l0.243-0.485l0.122,0.97L46.629,39.075z M48.811,32.65l-0.484-0.121v-0.122h0.605L48.811,32.65z M48.205,30.71  c0.161,0,0.282,0.021,0.363,0.061c0.08,0.042,0.162,0.061,0.242,0.061c0,0.163-0.121,0.243-0.364,0.243l-0.363-0.364H48.205z   M47.114,30.71l0.97,0.364h-0.122h-0.606l-0.484-0.243C47.032,30.832,47.114,30.792,47.114,30.71z M46.629,35.559l0.093,0.835  l-0.457-0.229l0.364-0.122V35.559z M46.144,28.165c0.08,0.082,0.141,0.121,0.182,0.121c0.041,0,0.101,0.042,0.182,0.122  l-0.364,0.485V28.165z M45.538,32.044c0.08,0.081,0.121,0.243,0.121,0.485l-0.364-0.485H45.538z M45.295,32.529l0.364,0.364v0.485  c0,0.324-0.041,0.526-0.121,0.606c-0.163-0.161-0.243-0.443-0.243-0.849V32.529z M44.811,35.438l0.727,0.121l-0.243,0.122  L44.811,35.438z M45.659,45.014l-0.485-0.242l0.728-0.849l0.242,0.485L45.659,45.014z M46.144,37.741l0.585-1.286l0.143,1.286  H46.144z M48.568,51.499c-0.081,0.043-0.203,0.061-0.363,0.061c0.079,0,0.14-0.018,0.181-0.061c0.041-0.039,0.101-0.061,0.182-0.061  h0.364C48.77,51.438,48.648,51.46,48.568,51.499z M56.205,50.954c-0.081,0-0.162,0.042-0.242,0.121l-0.121-0.121  c-0.081,0-0.163-0.04-0.243-0.121c-0.081-0.08-0.284-0.201-0.605-0.364c0.08-0.08,0.161-0.14,0.243-0.182  c0.078-0.04,0.16-0.101,0.241-0.182l0.121-0.122l0.121,0.122c0.161,0.163,0.323,0.284,0.485,0.364  c0.079,0.082,0.282,0.203,0.606,0.364C56.648,50.914,56.448,50.954,56.205,50.954z M69.055,56.287c0-0.078-0.021-0.14-0.061-0.182  c-0.042-0.039-0.061-0.101-0.061-0.182v-0.121c0.08,0,0.16-0.019,0.242-0.061c0.079-0.039,0.161-0.061,0.243-0.061h0.241  L69.055,56.287z M69.903,61.379h0.424l-0.546,0.364C69.781,61.5,69.822,61.379,69.903,61.379z M72.995,60.894  c-0.043,0-0.104-0.039-0.183-0.121c-0.082-0.079-0.162-0.16-0.242-0.243c-0.082-0.078-0.203-0.2-0.364-0.362  c-0.081-0.08-0.202-0.282-0.364-0.605l-0.727-0.729c-0.163-0.242-0.323-0.523-0.484-0.848c0.161,0,0.564,0.324,1.211,0.969  c0.162,0.163,0.243,0.284,0.243,0.364c0.161,0.163,0.242,0.284,0.242,0.364c0.161,0.161,0.262,0.283,0.304,0.363  c0.039,0.081,0.1,0.162,0.182,0.242c0.079,0.163,0.14,0.284,0.183,0.363c0.039,0.082,0.1,0.203,0.181,0.363  C73.095,60.937,73.034,60.894,72.995,60.894z"/><path d="M41.78,54.834h-0.073c-0.026,0.021-0.048,0.044-0.048,0.061C41.659,54.936,41.699,54.914,41.78,54.834z"/></svg>