<svg xmlns="http://www.w3.org/2000/svg" xmlns:xlink="http://www.w3.org/1999/xlink" version="1.1" x="0px" y="0px" viewBox="0 0 98 122.5" enable-background="new 0 0 98 98" xml:space="preserve"><path d="M85.525,82.305c0.272-0.272,0.565-0.565,0.878-0.879c0.155-0.154,0.272-0.311,0.352-0.468  c0.076-0.155,0.193-0.312,0.351-0.468c0.156-0.156,0.39-0.469,0.703-0.938c0.311-0.311,0.565-0.644,0.761-0.994  c0.194-0.352,0.369-0.722,0.527-1.113c0.155-0.155,0.252-0.331,0.292-0.527c0.039-0.193,0.136-0.369,0.293-0.526  c0.077-0.155,0.155-0.312,0.234-0.468c0.077-0.156,0.155-0.312,0.234-0.469c0.155-0.39,0.272-0.74,0.351-1.054  c0.077-0.312,0.194-0.662,0.352-1.054c0.077-0.39,0.155-0.721,0.234-0.996c0.076-0.271,0.155-0.564,0.234-0.877  c0-0.469,0.076-1.014,0.233-1.64V69.25c0,0.156-0.02,0.292-0.059,0.409c-0.04,0.117-0.059,0.255-0.059,0.409  c-0.078,0.158-0.116,0.334-0.116,0.527c0,0.195-0.041,0.41-0.117,0.645c0,0.157-0.079,0.547-0.234,1.17  c-0.079,0.234-0.138,0.451-0.176,0.645c-0.04,0.195-0.099,0.41-0.176,0.645c-0.547,1.873-1.562,3.825-3.044,5.854  c-1.483,1.953-3.318,3.63-5.503,5.035c-1.095,0.703-2.225,1.27-3.396,1.697c-1.171,0.43-2.342,0.762-3.513,0.996  s-2.304,0.371-3.396,0.409c-1.094,0.04-2.107-0.019-3.044-0.175c-0.626-0.156-1.095-0.234-1.405-0.234  c-0.157-0.077-0.352-0.136-0.586-0.176c-0.234-0.039-0.43-0.098-0.585-0.176c-0.157-0.077-0.333-0.117-0.527-0.117  c-0.195,0-0.371-0.039-0.526-0.117c-0.157-0.076-0.293-0.135-0.41-0.176c-0.117-0.038-0.254-0.097-0.41-0.176  c-0.233-0.155-0.449-0.252-0.644-0.293c-0.195-0.037-0.371-0.135-0.527-0.292l-0.233-0.117c-0.079,0-0.117-0.038-0.117-0.117v-0.117  c0.155,0.079,0.311,0.138,0.468,0.176c0.156,0.04,0.312,0.138,0.469,0.293c0.155,0,0.469,0.079,0.937,0.233  c0.077,0,0.155,0.021,0.234,0.059c0.077,0.041,0.155,0.059,0.234,0.059c0.076,0.079,0.155,0.117,0.234,0.117  c0.076,0,0.193,0.041,0.351,0.117c0.39,0.079,0.779,0.158,1.171,0.234c0.39,0.078,0.819,0.157,1.288,0.234  c1.795,0.312,3.882,0.274,6.265-0.117c2.38-0.39,4.624-1.248,6.732-2.576c2.107-1.326,3.901-2.887,5.386-4.684l1.054-1.404  c0.311-0.624,0.585-1.093,0.819-1.405c0.234-0.468,0.448-0.937,0.645-1.405c0.193-0.469,0.369-0.896,0.526-1.288  c0.155-0.39,0.272-0.8,0.352-1.229c0.077-0.428,0.193-0.838,0.352-1.229c0.076-0.234,0.116-0.546,0.116-0.938  c0.067-0.205,0.102-0.482,0.11-0.81c-0.031,0.136-0.067,0.286-0.11,0.458c-0.078,0.234-0.116,0.469-0.116,0.703  s-0.079,0.508-0.234,0.819c-0.234,1.016-0.664,2.225-1.288,3.63c-0.157,0.157-0.312,0.469-0.469,0.937  c-0.157,0.157-0.274,0.313-0.351,0.469c-0.079,0.157-0.158,0.312-0.234,0.468c-0.157,0.158-0.274,0.312-0.352,0.469  c-0.078,0.157-0.195,0.312-0.352,0.469l-0.702,0.819l-0.352,0.468l-0.351,0.469l-0.82,0.819c-0.312,0.313-0.585,0.548-0.819,0.702  c-0.312,0.313-0.585,0.548-0.819,0.703c-0.157,0.078-0.293,0.157-0.41,0.234c-0.117,0.078-0.254,0.195-0.409,0.352  c-0.158,0.078-0.293,0.156-0.41,0.234s-0.254,0.156-0.41,0.233c-0.157,0.157-0.292,0.255-0.409,0.293  c-0.117,0.04-0.255,0.099-0.41,0.175c-0.157,0.079-0.274,0.158-0.352,0.234c-0.078,0.079-0.195,0.158-0.351,0.234  c-0.469,0.079-0.938,0.274-1.405,0.586c-0.313,0.078-0.703,0.195-1.171,0.352l-0.703,0.233h-0.233  c-0.079,0.079-0.196,0.117-0.352,0.117h-0.702c-0.079,0-0.157,0.021-0.234,0.059c-0.079,0.04-0.157,0.059-0.234,0.059  c-0.157-0.077-0.352-0.117-0.585-0.117h-1.288c-0.547,0-0.937-0.038-1.171-0.117c-0.157,0-0.333-0.019-0.527-0.058  c-0.195-0.039-0.371-0.059-0.526-0.059c-0.157,0-0.293-0.02-0.41-0.059s-0.216-0.059-0.293-0.059c-0.078,0-0.157-0.039-0.234-0.117  h-0.116c-0.079,0-0.138,0.02-0.176,0.059c-0.04,0.039-0.099,0.059-0.176,0.059c-0.312,0.156-0.586,0.273-0.819,0.351  c-0.469,0.157-0.781,0.234-0.938,0.234c-0.078,0.079-0.195,0.117-0.351,0.117h-0.117c0-0.077-0.04-0.117-0.117-0.117  c-0.157,0-0.274-0.038-0.352-0.117l-0.702-0.351c-0.079,0-0.138-0.02-0.176-0.059c-0.04-0.039-0.099-0.059-0.176-0.059  c-0.078-0.078-0.137-0.117-0.176-0.117c-0.04,0-0.099-0.039-0.175-0.117c-0.313-0.156-0.606-0.312-0.879-0.469  c-0.274-0.155-0.566-0.311-0.878-0.469c-0.157-0.076-0.293-0.155-0.41-0.234c-0.116-0.076-0.254-0.154-0.409-0.233  c-0.157-0.077-0.293-0.155-0.41-0.234c-0.117-0.077-0.254-0.155-0.409-0.233c-0.446-0.172-0.813-0.326-1.124-0.467  c0.054-2.882,0.097-5.58,0.128-8.081c0.039-3.2,0.077-6.85,0.117-10.948c0.035-3.682,0.052-7.416,0.056-11.192  c0.078-0.035,0.167-0.07,0.237-0.106c0.234-0.155,0.469-0.293,0.702-0.409c0.234-0.117,0.507-0.253,0.82-0.41  c0.233-0.155,0.486-0.331,0.761-0.527c0.272-0.194,0.565-0.37,0.878-0.527c0.155-0.155,0.293-0.272,0.41-0.351  c0.117-0.077,0.252-0.194,0.41-0.352c0.229-0.183,0.405-0.331,0.554-0.46c0.011-0.001,0.021-0.008,0.031-0.008  c0.062-0.031,0.087-0.073,0.105-0.116c0.026-0.025,0.062-0.056,0.085-0.078c0.27,2.277,0.463,4.152,0.57,5.58  c0.117,1.562,0.331,3.592,0.645,6.089V48.525c0.155,0,0.234,0.781,0.234,2.341c0,1.563,0.038,3.279,0.116,5.152  c0,2.187,0.039,4.646,0.117,7.376l0.234-7.493c0.077-1.873,0.155-3.589,0.234-5.151c0.077-1.561,0.194-2.38,0.352-2.459v-0.117  c0.155,0.079,0.311,0.099,0.468,0.059c0.155-0.039,0.312-0.018,0.469,0.059c0.155,0.079,0.293,1.308,0.409,3.688  c0.117,2.383,0.215,5.018,0.293,7.904c0.077,3.357,0.117,7.221,0.117,11.592c0.077-4.293,0.194-8.117,0.352-11.475  c0.076-1.405,0.135-2.811,0.176-4.215c0.038-1.406,0.076-2.653,0.117-3.748c0.038-1.092,0.097-2.301,0.175-3.629  c0.156-0.077,0.39-0.117,0.703-0.117l0.234-0.117c0.311,0.468,0.545,0.743,0.702,0.82c0.155,0.157,0.352,0.351,0.585,0.585  c0.234,0.234,0.507,0.43,0.82,0.585c0.702,0.391,1.209,0.547,1.521,0.468c0.312-0.156,0.624-0.234,0.937-0.234  c0.234,0.079,0.469,0.117,0.703,0.117s0.468,0.04,0.702,0.117c0.077,0,0.176,0.274,0.293,0.819c0.117,0.548,0.214,1.153,0.293,1.815  c0.076,0.664,0.155,1.27,0.234,1.814c0.076,0.547,0.155,0.819,0.233,0.819c0.077,0.079,0.136-0.136,0.176-0.644  c0.039-0.507,0.097-1.072,0.176-1.697l0.234-2.342c0.076,0,0.155,0.039,0.234,0.117c0.233,0.233,0.428,0.391,0.585,0.468  c0.312,0.312,0.586,0.547,0.819,0.702c0.39,0.392,0.703,0.664,0.938,0.82l1.054,1.053c0.076,0.079,0.155,0.138,0.233,0.176  c0.077,0.041,0.194,0.138,0.352,0.293l0.469,0.469c0.39,0.391,0.761,0.723,1.112,0.995c0.351,0.274,0.721,0.526,1.112,0.761  c0.311,0.158,0.585,0.352,0.819,0.586c0,0.157-0.021,0.332-0.059,0.526c-0.04,0.196-0.059,0.45-0.059,0.761  c0,0.469,0.038,0.743,0.117,0.82c0.077,0.078,0.194,0.078,0.352,0c0.155-0.077,0.331-0.176,0.526-0.293  c0.194-0.117,0.37-0.059,0.527,0.176c0.076,0.078,0.234,0.312,0.468,0.703c0.156,0.468,0.234,0.781,0.234,0.936  c0.077,0.079,0.117,0.196,0.117,0.352c0.077,0.078,0.117,0.195,0.117,0.352v0.234c0,0.078,0.038,0.117,0.117,0.117  c0.077,0.078,0.135,0.117,0.176,0.117c0.038,0,0.097,0.078,0.176,0.234c0.155,0.156,0.233,0.312,0.233,0.468  c0.156,0.312,0.234,0.547,0.234,0.702c0.077,0.158,0.117,0.312,0.117,0.469c0,0.157,0.038,0.312,0.117,0.469  c0,0.156,0.019,0.312,0.059,0.468c0.038,0.157,0.059,0.313,0.059,0.468c0,0.234,0.019,0.469,0.059,0.703  c0.038,0.234,0.059,0.43,0.059,0.586c0.076,0.312,0.117,0.449,0.117,0.409c0-0.038,0-0.292,0-0.761v-0.234v-0.234v-0.352v-0.351  c0.076-0.234,0.116-0.546,0.116-0.937c0-0.545,0.077-0.976,0.234-1.289c0.156-0.311,0.272-0.506,0.352-0.584l0.117-0.117  c0-0.078-0.04-0.194-0.117-0.352c-0.079-0.156-0.138-0.273-0.176-0.352c-0.04-0.076-0.099-0.193-0.176-0.352  c-0.157-0.469-0.274-0.779-0.351-0.937c0-0.155-0.021-0.331-0.059-0.526c-0.041-0.194-0.059-0.37-0.059-0.527  c0.076-0.311,0.272-0.507,0.585-0.586c0.312-0.076,0.624-0.193,0.937-0.351c0.312-0.077,0.469-0.176,0.469-0.293  s-0.312-0.37-0.937-0.761c-0.313-0.156-0.605-0.273-0.878-0.352c-0.274-0.076-0.527-0.155-0.762-0.234  c-0.625-0.155-1.094-0.234-1.405-0.234c-0.078-0.076-0.195-0.117-0.351-0.117l-0.352-0.702c0-0.155-0.04-0.272-0.117-0.351  c-0.078-0.077-0.117-0.194-0.117-0.352c-0.234-0.624-0.664-1.326-1.288-2.107c0.156-0.311,0.194-0.545,0.117-0.703  c-0.157-0.234-0.468-0.468-0.937-0.702c-0.157-0.077-0.352-0.117-0.585-0.117c-0.313-0.233-0.586-0.468-0.82-0.703  c-0.233-0.234-0.508-0.428-0.819-0.585c-0.157-0.155-0.392-0.311-0.702-0.468c-0.079-0.077-0.274-0.194-0.586-0.351  c-0.078-0.077-0.137-0.117-0.176-0.117c-0.04,0-0.099-0.039-0.175-0.117l-0.234-0.702h-0.234c-0.079,0-0.138,0.02-0.176,0.058  c-0.04,0.041-0.137,0.059-0.293,0.059h-0.351l-0.234-0.117h-0.234c-0.078,0-0.117-0.039-0.117-0.117c0-0.077-0.04-0.117-0.117-0.117  c-0.157,0-0.274-0.039-0.351-0.117c-0.158-0.077-0.255-0.135-0.293-0.176c-0.04-0.038-0.138-0.097-0.293-0.175  c-0.312-0.156-0.547-0.234-0.702-0.234c-0.469-0.311-0.957-0.545-1.464-0.703c-0.509-0.155-0.84-0.311-0.995-0.468  c-0.079-0.077-0.352-0.194-0.819-0.351h-1.171c-0.157,0-0.293,0.02-0.41,0.059c-0.117,0.04-0.254,0.059-0.41,0.059  c-0.078-0.077-0.157-0.117-0.233-0.117c-0.079,0-0.158-0.039-0.234-0.117c-0.157-0.077-0.274-0.135-0.352-0.176  c-0.078-0.038-0.195-0.097-0.352-0.175c-0.157-0.077-0.274-0.117-0.351-0.117h-0.117c-0.079,0-0.138,0.02-0.176,0.059  c-0.04,0.04-0.099,0.059-0.176,0.059c-0.157,0.079-0.352,0.137-0.585,0.175c-0.234,0.041-0.431,0.099-0.586,0.176  c-0.157,0.079-0.333,0.137-0.526,0.176c-0.196,0.04-0.372,0.099-0.527,0.175c-0.157,0.079-0.274,0.117-0.352,0.117  c-0.078,0-0.116,0.041-0.116,0.117l-0.195-0.028c0.027-0.03,0.048-0.06,0.078-0.089c0.155-0.155,0.39-0.468,0.702-0.937  c0.311-0.311,0.565-0.644,0.761-0.995c0.194-0.352,0.37-0.721,0.527-1.112c0.155-0.156,0.252-0.332,0.293-0.527  c0.038-0.194,0.135-0.37,0.292-0.527c0.077-0.155,0.156-0.311,0.234-0.468c0.077-0.155,0.155-0.311,0.234-0.468  c0.155-0.39,0.272-0.741,0.352-1.054c0.076-0.311,0.193-0.662,0.351-1.054c0.077-0.39,0.156-0.721,0.234-0.995  c0.077-0.273,0.155-0.565,0.234-0.878c0-0.468,0.077-1.014,0.234-1.639v-0.585c0,0.157-0.021,0.293-0.059,0.41  c-0.04,0.117-0.059,0.254-0.059,0.41c-0.079,0.157-0.117,0.333-0.117,0.527c0,0.196-0.04,0.41-0.117,0.644  c0,0.157-0.079,0.547-0.234,1.171c-0.078,0.234-0.137,0.45-0.176,0.644c-0.04,0.196-0.099,0.41-0.175,0.644  c-0.548,1.874-1.562,3.826-3.045,5.854c-0.259,0.341-0.542,0.662-0.822,0.986l-0.99-0.142c0.257-0.279,0.519-0.554,0.759-0.845  l1.054-1.405c0.312-0.624,0.586-1.092,0.819-1.405c0.234-0.468,0.448-0.937,0.645-1.405c0.194-0.468,0.369-0.896,0.526-1.288  c0.156-0.39,0.273-0.8,0.352-1.229c0.077-0.428,0.194-0.838,0.352-1.229c0.077-0.234,0.117-0.545,0.117-0.937  c0.067-0.207,0.102-0.483,0.11-0.812c-0.031,0.137-0.067,0.288-0.11,0.46c-0.079,0.234-0.117,0.468-0.117,0.703  s-0.079,0.509-0.234,0.82c-0.234,1.015-0.664,2.225-1.288,3.629c-0.157,0.157-0.312,0.468-0.468,0.937  c-0.158,0.158-0.274,0.313-0.352,0.469c-0.079,0.157-0.157,0.312-0.234,0.468c-0.157,0.157-0.274,0.313-0.352,0.468  c-0.078,0.157-0.195,0.313-0.351,0.468l-0.703,0.82l-0.351,0.468l-0.352,0.468l-0.293,0.293c-0.208-0.035-0.449-0.059-0.761-0.059  h-0.352c-0.078,0-0.117-0.039-0.117-0.117L65.094,46.3c-0.157,0.158-0.274,0.234-0.352,0.234c-0.157,0.079-0.312,0.196-0.469,0.351  c-0.157,0.158-0.292,0.274-0.409,0.352c-0.117,0.079-0.255,0.157-0.41,0.234l-0.468,0.234h-0.117c-0.079,0-0.138,0.02-0.176,0.059  c-0.04,0.04-0.099,0.059-0.176,0.059c-0.157,0.079-0.352,0.117-0.585,0.117c-0.234,0-0.431,0.04-0.586,0.117  c-0.077,0.02-0.142,0.036-0.213,0.055c0.062-9.246,0.096-19.561,0.096-30.965c0.077,0,0.155,0.04,0.234,0.117  c0.234,0.234,0.428,0.392,0.585,0.468c0.312,0.313,0.586,0.547,0.82,0.703c0.155,0.157,0.311,0.292,0.468,0.41  c0.156,0.117,0.312,0.254,0.469,0.41l1.054,1.054c0.077,0.079,0.155,0.137,0.234,0.176c0.076,0.04,0.193,0.137,0.351,0.293  l0.469,0.468c0.39,0.392,0.761,0.723,1.112,0.995c0.352,0.274,0.721,0.527,1.112,0.761c0.312,0.157,0.586,0.351,0.819,0.585  c0,0.157-0.02,0.333-0.059,0.527c-0.04,0.196-0.059,0.45-0.059,0.761c0,0.468,0.039,0.743,0.117,0.82  c0.077,0.079,0.194,0.079,0.352,0c0.155-0.077,0.331-0.176,0.527-0.293c0.193-0.117,0.369-0.059,0.526,0.176  c0.077,0.079,0.234,0.313,0.469,0.703c0.155,0.468,0.233,0.781,0.233,0.937c0.077,0.079,0.117,0.196,0.117,0.352  c0.077,0.079,0.117,0.195,0.117,0.351v0.234c0,0.079,0.039,0.117,0.117,0.117c0.077,0.079,0.136,0.117,0.176,0.117  c0.038,0,0.097,0.079,0.176,0.234c0.155,0.157,0.234,0.312,0.234,0.468c0.155,0.313,0.233,0.547,0.233,0.703  c0.077,0.157,0.117,0.312,0.117,0.468c0,0.157,0.039,0.312,0.117,0.468c0,0.157,0.019,0.313,0.059,0.468  c0.039,0.157,0.059,0.313,0.059,0.468c0,0.234,0.019,0.468,0.059,0.703c0.038,0.234,0.059,0.43,0.059,0.585  c0.077,0.313,0.117,0.45,0.117,0.41c0-0.038,0-0.292,0-0.761v-0.234v-0.234v-0.351v-0.351c0.077-0.234,0.117-0.545,0.117-0.937  c0-0.545,0.076-0.975,0.234-1.288c0.155-0.311,0.272-0.507,0.351-0.585l0.117-0.117c0-0.077-0.04-0.194-0.117-0.351  c-0.078-0.156-0.137-0.273-0.176-0.352c-0.04-0.077-0.099-0.194-0.175-0.351c-0.158-0.468-0.274-0.779-0.352-0.937  c0-0.155-0.021-0.331-0.059-0.527c-0.04-0.194-0.059-0.37-0.059-0.527c0.077-0.311,0.272-0.507,0.586-0.585  c0.311-0.077,0.623-0.194,0.937-0.351c0.311-0.077,0.468-0.176,0.468-0.293c0-0.117-0.312-0.369-0.937-0.761  c-0.312-0.156-0.605-0.272-0.878-0.352c-0.274-0.077-0.527-0.155-0.761-0.234c-0.626-0.156-1.095-0.234-1.405-0.234  c-0.079-0.077-0.196-0.117-0.352-0.117l-0.352-0.702c0-0.156-0.04-0.273-0.117-0.352c-0.078-0.077-0.116-0.194-0.116-0.351  c-0.234-0.624-0.664-1.326-1.288-2.107c0.155-0.311,0.193-0.545,0.117-0.703c-0.157-0.234-0.469-0.468-0.938-0.703  c-0.157-0.077-0.351-0.117-0.585-0.117c-0.312-0.234-0.586-0.468-0.819-0.702c-0.234-0.234-0.509-0.428-0.82-0.585  c-0.157-0.156-0.391-0.311-0.702-0.469c-0.079-0.077-0.274-0.194-0.585-0.351c-0.079-0.077-0.138-0.117-0.176-0.117  c-0.041,0-0.099-0.038-0.176-0.117l-0.234-0.702h-0.234c-0.078,0-0.137,0.02-0.176,0.059c-0.04,0.04-0.137,0.058-0.292,0.058h-0.352  l-0.234-0.117h-0.234c-0.078,0-0.116-0.039-0.116-0.117c0-0.077-0.041-0.117-0.117-0.117c-0.157,0-0.274-0.039-0.352-0.117  c-0.157-0.077-0.254-0.135-0.293-0.175c-0.04-0.039-0.137-0.097-0.293-0.176c-0.312-0.156-0.547-0.234-0.702-0.234  c-0.469-0.311-0.957-0.545-1.464-0.702c-0.508-0.156-0.84-0.311-0.995-0.469c-0.078-0.077-0.351-0.194-0.819-0.351h-1.171  c-0.157,0-0.293,0.02-0.41,0.059c-0.117,0.04-0.254,0.059-0.409,0.059c-0.079-0.077-0.157-0.117-0.234-0.117  c-0.079,0-0.157-0.039-0.234-0.117c-0.157-0.077-0.274-0.135-0.352-0.175c-0.078-0.039-0.195-0.097-0.351-0.176  c-0.157-0.077-0.274-0.117-0.352-0.117h-0.117c-0.078,0-0.137,0.02-0.176,0.059c-0.04,0.04-0.099,0.059-0.176,0.059  c-0.157,0.079-0.351,0.137-0.585,0.176c-0.234,0.04-0.43,0.099-0.585,0.175c-0.158,0.079-0.333,0.137-0.527,0.176  c-0.195,0.04-0.371,0.099-0.527,0.176c-0.157,0.079-0.274,0.117-0.351,0.117c-0.079,0-0.117,0.041-0.117,0.117l-1.64-0.234  c-0.233-0.077-0.585-0.117-1.054-0.117H47.18c-0.079,0-0.117-0.039-0.117-0.117l-0.469,0.234c-0.157,0.157-0.274,0.234-0.352,0.234  c-0.157,0.079-0.312,0.196-0.468,0.352c-0.157,0.157-0.293,0.274-0.41,0.351c-0.117,0.079-0.254,0.157-0.409,0.234l-0.469,0.234  h-0.117c-0.079,0-0.137,0.02-0.176,0.059c-0.04,0.04-0.099,0.059-0.176,0.059c-0.157,0.079-0.351,0.117-0.585,0.117  s-0.43,0.04-0.586,0.117c-0.625,0.157-1.054,0.274-1.287,0.351c-0.079,0.079-0.196,0.117-0.352,0.117h-0.117l0.585,1.288  c0,0.079-0.04,0.117-0.116,0.117c-0.079,0-0.158,0.02-0.234,0.059c-0.079,0.041-0.157,0.059-0.234,0.059  c-0.157,0.079-0.333,0.157-0.527,0.234c-0.195,0.079-0.409,0.195-0.644,0.351c-0.312,0.157-0.509,0.274-0.586,0.351  c-0.312,0.158-0.508,0.234-0.585,0.234c-0.157,0.157-0.274,0.234-0.352,0.234l-0.117,0.117v0.117c0,0.079-0.02,0.157-0.059,0.234  c-0.04,0.079-0.058,0.157-0.058,0.234V18.2h-0.352h-0.352l-0.234,0.234c-0.078,0.079-0.137,0.157-0.176,0.234  c-0.04,0.079-0.137,0.196-0.292,0.352c-0.079,0.079-0.117,0.157-0.117,0.234l-0.117-0.117l-1.64-1.873  c-0.078,0.079-0.116,0.157-0.116,0.234c-0.079,0.079-0.117,0.158-0.117,0.234c0,0.079-0.041,0.196-0.117,0.351  c-0.157,0.234-0.274,0.509-0.352,0.82c-0.079,0.313-0.195,0.625-0.352,0.937c-0.157,0.392-0.254,0.743-0.292,1.054  c-0.041,0.313-0.1,0.585-0.176,0.82c-0.079,0.157-0.117,0.351-0.117,0.585c0,0.079-0.04,0.157-0.117,0.234  c-0.079-0.077-0.157-0.117-0.234-0.117c-0.157,0-0.312-0.039-0.468-0.117c-0.234-0.077-0.743-0.194-1.522-0.352  c-0.392-0.077-0.898-0.194-1.522-0.351c-0.312-0.077-0.547-0.117-0.702-0.117c0,0.079,0.038,0.158,0.117,0.234  c0,0.079,0.076,0.274,0.234,0.585c0.076,0.625,0.311,1.211,0.702,1.756c0.155,0.392,0.293,0.723,0.41,0.995  c0.116,0.274,0.252,0.527,0.409,0.761c0.155,0.312,0.312,0.547,0.469,0.702l-1.64-0.819v0.117c0,0.079,0.019,0.117,0.059,0.117  c0.039,0,0.059,0.041,0.059,0.117c0,0.079,0.019,0.176,0.059,0.293c0.038,0.117,0.059,0.254,0.059,0.41  c0.077,0.392,0.155,0.781,0.234,1.171c0.077,0.392,0.193,0.781,0.352,1.171c0.233,0.703,0.506,1.367,0.819,1.99l0.234,0.703  c0,0.079,0.038,0.157,0.116,0.234l-0.116-0.117l-0.352-0.351c-0.157-0.234-0.469-0.663-0.937-1.288  c-0.157-0.234-0.313-0.468-0.469-0.703c-0.157-0.234-0.312-0.428-0.468-0.585l-0.234-0.468l-0.117-0.234v0.117  c0,0.157,0.038,0.274,0.117,0.351c0.076,0.158,0.117,0.313,0.117,0.469c0,0.157,0.076,0.312,0.233,0.468  c0.156,0.625,0.273,1.132,0.352,1.522c0.155,0.313,0.39,0.86,0.703,1.639c0.155,0.234,0.292,0.489,0.409,0.761  c0.117,0.274,0.253,0.567,0.41,0.878c0.234,0.626,0.507,1.133,0.819,1.522c0,0.079,0.019,0.137,0.059,0.175  c0.038,0.041,0.059,0.099,0.059,0.176v0.117c0.077,0.234,0.117,0.468,0.117,0.703c0,0.234,0.038,0.468,0.117,0.702  c0,0.079,0.019,0.158,0.059,0.234c0.038,0.079,0.059,0.196,0.059,0.351l-0.234-0.234c-0.157-0.156-0.255-0.273-0.293-0.352  c-0.04-0.077-0.137-0.155-0.293-0.234c-0.157-0.156-0.274-0.234-0.351-0.234c-0.313,0-0.313,0.43,0,1.288  c0.076,0.234,0.155,0.468,0.233,0.703c0.077,0.234,0.156,0.43,0.234,0.585c0.156,0.157,0.253,0.292,0.293,0.41  c0.038,0.117,0.136,0.254,0.293,0.41c0.076,0.079,0.155,0.626,0.234,1.639c0.065,0.868,0.114,1.821,0.153,2.83  c-0.062-0.031-0.113-0.058-0.153-0.079c-0.079-0.038-0.196-0.097-0.352-0.175c-0.157-0.077-0.274-0.117-0.352-0.117h-0.117  c-0.078,0-0.137,0.02-0.176,0.059c-0.04,0.04-0.099,0.059-0.175,0.059c-0.158,0.079-0.352,0.137-0.586,0.175  c-0.234,0.041-0.43,0.099-0.585,0.176c-0.157,0.079-0.333,0.137-0.527,0.176c-0.195,0.04-0.371,0.099-0.526,0.175  c-0.158,0.079-0.274,0.117-0.352,0.117c-0.079,0-0.117,0.041-0.117,0.117l-1.64-0.234c-0.233-0.077-0.585-0.117-1.054-0.117h-0.351  c-0.079,0-0.117-0.039-0.117-0.117l-0.469,0.234c-0.157,0.158-0.274,0.234-0.352,0.234c-0.157,0.079-0.312,0.196-0.468,0.351  c-0.157,0.158-0.293,0.274-0.41,0.352c-0.117,0.079-0.254,0.157-0.409,0.234l-0.469,0.234h-0.117c-0.078,0-0.137,0.02-0.176,0.059  c-0.04,0.04-0.099,0.059-0.176,0.059c-0.157,0.079-0.351,0.117-0.585,0.117s-0.43,0.04-0.586,0.117  c-0.625,0.158-1.054,0.274-1.287,0.352c-0.079,0.079-0.196,0.117-0.352,0.117H19.43l0.586,1.288c0,0.079-0.041,0.117-0.117,0.117  c-0.079,0-0.157,0.02-0.234,0.059c-0.079,0.04-0.157,0.059-0.234,0.059c-0.157,0.079-0.333,0.157-0.526,0.234  c-0.196,0.079-0.41,0.196-0.645,0.352c-0.312,0.157-0.509,0.274-0.585,0.351c-0.313,0.157-0.509,0.234-0.586,0.234  c-0.157,0.157-0.274,0.234-0.352,0.234l-0.116,0.117v0.118c0,0.078-0.021,0.156-0.059,0.234c-0.041,0.078-0.059,0.156-0.059,0.233  v0.117h-0.352H15.8l-0.234,0.234c-0.078,0.079-0.137,0.157-0.175,0.233c-0.041,0.079-0.138,0.196-0.293,0.352  c-0.079,0.079-0.117,0.158-0.117,0.234l-0.117-0.117l-1.639-1.873c-0.079,0.079-0.117,0.157-0.117,0.234  c-0.079,0.079-0.117,0.157-0.117,0.235s-0.04,0.195-0.117,0.351c-0.157,0.234-0.274,0.509-0.352,0.819  c-0.078,0.312-0.195,0.626-0.352,0.938c-0.157,0.391-0.254,0.742-0.292,1.053c-0.041,0.313-0.099,0.586-0.176,0.82  c-0.079,0.157-0.117,0.352-0.117,0.586c0,0.078-0.04,0.156-0.117,0.233c-0.078-0.077-0.157-0.117-0.234-0.117  c-0.157,0-0.312-0.038-0.468-0.116c-0.234-0.078-0.743-0.194-1.522-0.352c-0.392-0.077-0.898-0.194-1.522-0.352  c-0.312-0.076-0.547-0.117-0.702-0.117c0,0.078,0.038,0.157,0.117,0.234c0,0.078,0.077,0.274,0.234,0.586  c0.076,0.625,0.311,1.211,0.702,1.756c0.155,0.391,0.293,0.723,0.41,0.995c0.117,0.274,0.252,0.526,0.409,0.761  C9.048,59.609,9.203,59.844,9.36,60l-1.64-0.82v0.117c0,0.079,0.019,0.117,0.059,0.117c0.039,0,0.059,0.041,0.059,0.117  c0,0.078,0.019,0.176,0.059,0.293c0.039,0.117,0.059,0.254,0.059,0.41c0.077,0.391,0.155,0.781,0.234,1.17  c0.077,0.393,0.194,0.781,0.352,1.172c0.233,0.701,0.507,1.366,0.819,1.99l0.234,0.702c0,0.079,0.038,0.157,0.117,0.234  l-0.117-0.117l-0.352-0.352c-0.157-0.233-0.469-0.662-0.937-1.288c-0.157-0.234-0.312-0.469-0.469-0.702  c-0.157-0.234-0.312-0.429-0.468-0.585L7.136,61.99l-0.117-0.234v0.117c0,0.157,0.038,0.274,0.117,0.352  c0.077,0.157,0.117,0.312,0.117,0.469s0.076,0.312,0.234,0.468c0.155,0.626,0.272,1.132,0.351,1.522  c0.156,0.312,0.39,0.859,0.703,1.639c0.155,0.234,0.292,0.488,0.409,0.762s0.253,0.566,0.41,0.877  c0.234,0.627,0.507,1.133,0.819,1.523c0,0.078,0.019,0.137,0.059,0.175c0.038,0.04,0.059,0.099,0.059,0.176v0.117  c0.077,0.233,0.117,0.468,0.117,0.702s0.038,0.469,0.117,0.703c0,0.078,0.019,0.156,0.059,0.234  c0.038,0.078,0.059,0.195,0.059,0.351l-0.234-0.233c-0.157-0.156-0.254-0.273-0.293-0.352c-0.04-0.077-0.137-0.156-0.292-0.234  c-0.158-0.156-0.274-0.234-0.352-0.234c-0.313,0-0.313,0.43,0,1.288c0.077,0.233,0.155,0.468,0.234,0.702  c0.076,0.234,0.155,0.43,0.233,0.586c0.156,0.157,0.253,0.293,0.293,0.41c0.038,0.117,0.136,0.254,0.293,0.409  c0.077,0.079,0.155,0.626,0.234,1.64c0.076,1.016,0.135,2.127,0.176,3.336c0.038,1.212,0.097,2.304,0.175,3.279  c0.077,0.977,0.156,1.504,0.234,1.58l0.234-9.016v0.117l1.171,1.055v1.17c0,0.158,0.019,0.274,0.059,0.352  c0.038,0.078,0.059,0.195,0.059,0.352V78.5l0.234,0.233c0.076,0.079,0.272,0.196,0.585,0.352c0.155,0.079,0.312,0.195,0.469,0.351  c0.076,0.158,0.117,0.393,0.117,0.703c-0.079,0.157-0.117,0.293-0.117,0.41s-0.041,0.254-0.117,0.409  c-0.079,0.157-0.117,0.274-0.117,0.352h0.352c0.155,0,0.311,0.021,0.468,0.059c0.155,0.04,0.312,0.058,0.469,0.058l0.117,0.234  h0.117h0.468c0.155,0.079,0.352,0.176,0.586,0.293c0.233,0.117,0.545,0.333,0.937,0.645c0.311,0.312,0.624,0.547,0.937,0.702  c0,0.079,0.038,0.117,0.117,0.117c0.155,0.234,0.311,0.468,0.468,0.702c0.156,0.234,0.312,0.43,0.469,0.586  c0.312,0.391,0.586,0.761,0.819,1.112c0.234,0.351,0.352,0.605,0.352,0.761c0,0.234,0.272,0.469,0.819,0.703  c0.156,0.078,0.293,0.137,0.41,0.176s0.252,0.098,0.41,0.175c0.311,0.157,0.585,0.234,0.819,0.234  c0.624,0.157,1.014,0.216,1.171,0.176c0.155-0.038-0.117-0.253-0.819-0.644c-0.469-0.156-0.781-0.312-0.938-0.469  c-0.157-0.077-0.254-0.156-0.292-0.234c-0.041-0.076-0.138-0.155-0.293-0.234c-0.234-0.311-0.352-0.585-0.352-0.819  c0.155,0.157,0.352,0.255,0.586,0.292c0.233,0.041,0.468,0.138,0.702,0.293l2.107,0.703c0.39,0.078,0.721,0.117,0.995,0.117  c0.272,0,0.527,0.04,0.762,0.117h0.468h0.234c0.077,0.078,0.194,0.157,0.352,0.234c0.155,0.078,0.468,0.195,0.937,0.351  c0.155,0.157,0.293,0.234,0.41,0.234c0.116,0,0.252,0.04,0.409,0.117c0.077,0.079,0.194,0.116,0.352,0.116h0.117h0.351h0.82  c0.233-0.076,0.448-0.116,0.644-0.116c0.194,0,0.41-0.038,0.645-0.117c0.311,0,0.545-0.038,0.702-0.117  c0.311,0,0.545-0.038,0.702-0.117l1.405-0.351c0.155-0.077,0.331-0.136,0.527-0.176c0.193-0.039,0.369-0.098,0.526-0.176  c0.469-0.156,0.741-0.234,0.819-0.234l0.234-0.117l0.117-0.117l1.054-0.352c0.469-0.155,0.858-0.311,1.171-0.468  c0.234-0.155,0.469-0.293,0.703-0.409c0.233-0.117,0.506-0.254,0.819-0.41c0.234-0.156,0.486-0.332,0.761-0.527  c0.272-0.193,0.565-0.369,0.878-0.527c0.156-0.154,0.293-0.271,0.41-0.351c0.117-0.077,0.253-0.194,0.41-0.352  c0.39-0.312,0.662-0.545,0.819-0.702c0.311-0.234,0.604-0.486,0.878-0.762c0.272-0.271,0.565-0.564,0.878-0.878  c0.156-0.155,0.273-0.311,0.352-0.468c0.077-0.156,0.194-0.312,0.352-0.469c0.155-0.155,0.39-0.469,0.702-0.937  c0.312-0.312,0.565-0.644,0.761-0.995c0.194-0.352,0.37-0.721,0.527-1.112c0.155-0.155,0.253-0.331,0.293-0.527  c0.038-0.194,0.135-0.369,0.292-0.526c0.077-0.156,0.156-0.312,0.234-0.469c0.077-0.155,0.156-0.311,0.234-0.469  c0.092-0.23,0.167-0.444,0.231-0.648c0.242,0.359,0.403,0.582,0.471,0.648c0.077,0.079,0.156,0.626,0.234,1.64  c0.077,1.016,0.136,2.128,0.176,3.337c0.038,1.211,0.097,2.303,0.176,3.278c0.077,0.978,0.155,1.504,0.234,1.581l0.234-9.016v0.117  l1.17,1.054v1.171c0,0.157,0.019,0.273,0.059,0.352c0.039,0.078,0.059,0.195,0.059,0.351v0.352l0.234,0.233  c0.077,0.079,0.272,0.196,0.586,0.352c0.155,0.079,0.311,0.195,0.468,0.352c0.077,0.157,0.117,0.392,0.117,0.703  c-0.078,0.156-0.117,0.292-0.117,0.409s-0.04,0.255-0.117,0.409c-0.078,0.158-0.117,0.275-0.117,0.352h0.352  c0.155,0,0.312,0.021,0.469,0.059c0.155,0.041,0.311,0.059,0.468,0.059l0.117,0.234h0.117h0.469  c0.155,0.078,0.351,0.176,0.585,0.293s0.545,0.332,0.937,0.644c0.312,0.313,0.624,0.548,0.938,0.702  c0,0.079,0.038,0.117,0.116,0.117c0.156,0.234,0.312,0.469,0.469,0.703c0.155,0.234,0.311,0.43,0.469,0.586  c0.311,0.391,0.585,0.76,0.819,1.111s0.352,0.605,0.352,0.762c0,0.234,0.272,0.468,0.819,0.702c0.155,0.079,0.293,0.138,0.409,0.176  c0.117,0.04,0.253,0.099,0.41,0.175c0.312,0.158,0.586,0.234,0.819,0.234c0.624,0.158,1.014,0.217,1.171,0.176  c0.156-0.038-0.117-0.252-0.819-0.644c-0.469-0.155-0.781-0.312-0.937-0.468c-0.157-0.078-0.254-0.156-0.293-0.234  c-0.04-0.077-0.137-0.156-0.293-0.234c-0.233-0.311-0.351-0.586-0.351-0.82c0.155,0.158,0.351,0.255,0.585,0.293  c0.234,0.041,0.469,0.137,0.703,0.293l2.107,0.703c0.39,0.078,0.721,0.116,0.995,0.116c0.272,0,0.526,0.04,0.761,0.117h0.469h0.234  c0.076,0.079,0.193,0.157,0.351,0.234c0.155,0.079,0.469,0.196,0.937,0.351c0.156,0.158,0.293,0.234,0.41,0.234  s0.253,0.041,0.41,0.117c0.076,0.079,0.193,0.117,0.351,0.117h0.117h0.352h0.819c0.234-0.076,0.448-0.117,0.645-0.117  c0.193,0,0.409-0.038,0.644-0.117c0.312,0,0.545-0.038,0.703-0.117c0.311,0,0.545-0.038,0.702-0.117l1.405-0.351  c0.155-0.077,0.331-0.136,0.526-0.176c0.194-0.038,0.37-0.097,0.527-0.176c0.468-0.155,0.74-0.233,0.819-0.233l0.234-0.117  l0.117-0.117l1.054-0.352c0.468-0.156,0.857-0.311,1.171-0.469c0.234-0.155,0.468-0.293,0.702-0.41  c0.234-0.116,0.507-0.252,0.819-0.409c0.234-0.155,0.487-0.331,0.762-0.526c0.272-0.194,0.565-0.37,0.878-0.527  c0.155-0.155,0.293-0.272,0.41-0.352c0.116-0.076,0.252-0.193,0.409-0.352c0.39-0.311,0.662-0.545,0.819-0.701  C84.958,82.832,85.251,82.579,85.525,82.305z M87.105,55.082c0.077,0.157,0.156,0.312,0.234,0.469  c-0.078-0.077-0.117-0.136-0.117-0.176c0-0.039-0.04-0.098-0.117-0.176c-0.078-0.156-0.137-0.252-0.176-0.293  c-0.04-0.038-0.099-0.135-0.175-0.293C86.91,54.771,87.027,54.926,87.105,55.082z M76.451,47.823h0.702h0.352l1.171,1.171  l-0.234,0.117c-0.157,0.079-0.352,0.117-0.586,0.117h-0.116c-0.079,0-0.158-0.038-0.234-0.117c-0.079-0.077-0.157-0.155-0.234-0.234  c-0.079-0.077-0.195-0.194-0.352-0.351c-0.157-0.077-0.292-0.156-0.409-0.234c-0.117-0.077-0.255-0.194-0.41-0.351  c0-0.077-0.04-0.117-0.117-0.117H76.451z M70.948,47.354v0.117h-0.117L70.948,47.354z M68.606,21.01  c0.076,0.157,0.155,0.313,0.233,0.468c-0.078-0.077-0.116-0.135-0.116-0.175c0-0.039-0.041-0.097-0.117-0.176  c-0.079-0.156-0.138-0.252-0.176-0.293c-0.04-0.038-0.099-0.135-0.176-0.292C68.41,20.699,68.527,20.854,68.606,21.01z   M63.571,50.516c-0.798,0.513-1.622,0.927-2.461,1.294c0-0.116,0.001-0.229,0.001-0.346c0.181-0.169,0.341-0.298,0.47-0.362h0.117  l0.468-0.235l0.234-0.234c0.155-0.156,0.253-0.272,0.293-0.352c0.038-0.077,0.135-0.155,0.293-0.234l0.116-0.117h0.117  c0.077-0.077,0.156-0.117,0.234-0.117c0.155-0.077,0.293-0.117,0.41-0.117s0.252-0.038,0.409-0.117c0.156,0,0.312-0.019,0.469-0.059  c0.099-0.024,0.199-0.028,0.299-0.037C64.568,49.841,64.082,50.188,63.571,50.516z M56.663,54.028v0.937l-0.117-0.117  c-0.234-0.234-0.392-0.428-0.468-0.586c0.076,0,0.135-0.018,0.176-0.058c0.038-0.038,0.097-0.059,0.175-0.059  c0.077,0,0.117-0.019,0.117-0.059C56.546,54.049,56.585,54.028,56.663,54.028z M50.658,72.377l-0.083-0.083  c-0.158-0.155-0.255-0.272-0.293-0.352c-0.04-0.077-0.138-0.155-0.293-0.233c-0.036-0.036-0.062-0.053-0.094-0.08  c0.06-0.213,0.13-0.42,0.211-0.623c0.077-0.234,0.117-0.545,0.117-0.938c0.013-0.038,0.019-0.092,0.029-0.135  c0.03,0.042,0.057,0.096,0.088,0.135c0,0.08,0.018,0.138,0.059,0.176c0.038,0.041,0.059,0.1,0.059,0.176v0.117  c0.076,0.234,0.117,0.469,0.117,0.703s0.038,0.469,0.116,0.702c0,0.055,0.021,0.108,0.041,0.163  C50.706,72.197,50.677,72.293,50.658,72.377z M34.417,42.788v1.171c0,0.157,0.019,0.274,0.059,0.351  c0.038,0.079,0.059,0.196,0.059,0.351v0.352l0.234,0.234c0.055,0.056,0.191,0.139,0.367,0.234h-1.07c-0.157,0-0.293,0.02-0.41,0.059  c-0.116,0.04-0.254,0.059-0.409,0.059c-0.034-0.033-0.067-0.056-0.102-0.075l0.102-3.906v0.117L34.417,42.788z M47.767,52.506  c0,0.131,0.001,0.268,0.001,0.398c-0.04-0.016-0.085-0.029-0.12-0.047c-0.157-0.076-0.333-0.117-0.526-0.117  c-0.044,0-0.084-0.01-0.126-0.014c-0.057-0.074-0.106-0.145-0.167-0.221c0.041-0.083,0.053-0.146,0.077-0.219  c0.072,0.016,0.158,0.045,0.274,0.102C47.375,52.429,47.571,52.467,47.767,52.506z M55.258,53.092  c-0.078,0.078-0.116,0.157-0.116,0.234l-0.117-0.117l-0.277-0.316c0.254-0.031,0.508-0.062,0.768-0.102  C55.466,52.867,55.387,52.963,55.258,53.092z M52.462,53.611c-0.785-0.008-1.54-0.051-2.238-0.168  c-0.626-0.156-1.094-0.234-1.405-0.234c-0.157-0.077-0.352-0.136-0.585-0.176c-0.048-0.008-0.087-0.021-0.132-0.029l0.008-0.43  c0.08,0.017,0.16,0.033,0.241,0.049c0.39,0.078,0.819,0.158,1.287,0.234c0.927,0.162,1.936,0.226,3.02,0.199  C52.606,53.242,52.539,53.427,52.462,53.611z M52.038,54.965c-0.04,0.312-0.099,0.586-0.176,0.82  c-0.078,0.156-0.116,0.351-0.116,0.585c0,0.079-0.041,0.157-0.117,0.233c-0.079-0.076-0.157-0.117-0.234-0.117  c-0.157,0-0.313-0.037-0.469-0.116c-0.234-0.077-0.742-0.194-1.521-0.352c-0.223-0.044-0.492-0.104-0.79-0.173l-0.264-0.529  c0-0.156-0.041-0.273-0.117-0.352c-0.079-0.076-0.117-0.193-0.117-0.352c-0.012-0.031-0.03-0.065-0.043-0.098l0.017-0.9  c0.089,0.018,0.178,0.034,0.261,0.062h0.468h0.234c0.077,0.079,0.193,0.157,0.352,0.234c0.155,0.079,0.468,0.196,0.937,0.351  c0.155,0.158,0.292,0.234,0.409,0.234s0.253,0.041,0.41,0.117c0.077,0.079,0.194,0.117,0.352,0.117h0.117h0.351h0.106  C52.07,54.809,52.047,54.892,52.038,54.965z M47.77,53.891c-0.061-0.109-0.12-0.218-0.19-0.331c0.003,0,0.007,0.001,0.01,0.001  c0.062,0,0.12,0.009,0.181,0.014C47.77,53.68,47.77,53.783,47.77,53.891z M46.945,54.496c0.076,0.158,0.155,0.313,0.234,0.469  c-0.079-0.076-0.117-0.135-0.117-0.176c0-0.038-0.041-0.097-0.117-0.176c-0.079-0.155-0.138-0.252-0.176-0.293  c-0.04-0.037-0.099-0.135-0.176-0.292C46.749,54.186,46.866,54.342,46.945,54.496z M48.175,58.887  c0.134-0.08,0.259-0.072,0.376,0.016c0.03,0.073,0.063,0.153,0.092,0.219c0.117,0.275,0.253,0.527,0.41,0.762  c0.099,0.199,0.198,0.354,0.297,0.49c0.014,0.053,0.022,0.099,0.031,0.143l-1.406-0.703l0.016-0.822  C48.054,58.953,48.105,58.928,48.175,58.887z M47.971,60.021c0.017,0.018,0.028,0.046,0.028,0.097c0,0.078,0.019,0.176,0.059,0.293  c0.038,0.116,0.059,0.254,0.059,0.409c0.076,0.392,0.155,0.781,0.234,1.171c0.076,0.392,0.193,0.781,0.351,1.171  c0.234,0.702,0.507,1.366,0.819,1.99l0.234,0.702c0,0.079,0.039,0.158,0.117,0.234l-0.117-0.117l-0.351-0.352  c-0.158-0.233-0.469-0.662-0.938-1.287c-0.157-0.234-0.312-0.469-0.468-0.703c-0.031-0.046-0.062-0.084-0.093-0.127L47.971,60.021z   M50.458,68.43v0.117c0,0.048-0.01,0.125-0.024,0.215C50.446,68.661,50.458,68.557,50.458,68.43z M50.408,68.908  c-0.02,0.1-0.044,0.214-0.074,0.348c0.001-0.043,0.007-0.078,0.007-0.123C50.37,69.072,50.39,68.99,50.408,68.908z M58.665,52.705  c-0.002-0.03-0.012-0.051-0.012-0.082l0.234-0.234l0.469-0.468c0.426-0.142,0.716-0.283,0.884-0.427  c0.003,0.231,0.005,0.458,0.007,0.688c-0.024,0.009-0.047,0.022-0.071,0.03C59.672,52.398,59.169,52.557,58.665,52.705z   M65.932,48.751c-0.031-0.114-0.017-0.228,0.099-0.343c0.01,0.083,0.018,0.155,0.027,0.237  C66.017,48.681,65.974,48.715,65.932,48.751z M57.951,13.75h0.702h0.352l1.171,1.171l-0.234,0.117  c-0.157,0.079-0.351,0.117-0.585,0.117h-0.117c-0.079,0-0.157-0.038-0.234-0.117c-0.078-0.077-0.157-0.156-0.234-0.234  c-0.078-0.077-0.195-0.194-0.351-0.351c-0.157-0.077-0.293-0.156-0.41-0.234c-0.117-0.077-0.254-0.194-0.41-0.351  c0-0.077-0.04-0.117-0.117-0.117H57.951z M52.448,13.282v0.117h-0.117L52.448,13.282z M48.818,14.453  c0.155,0,0.234,0.781,0.234,2.342c0,1.562,0.038,3.278,0.117,5.151c0,2.187,0.038,4.646,0.117,7.376l0.233-7.493  c0.077-1.874,0.156-3.589,0.234-5.152c0.077-1.561,0.194-2.38,0.352-2.459v-0.117c0.155,0.079,0.311,0.099,0.469,0.059  c0.155-0.038,0.311-0.018,0.468,0.059c0.155,0.079,0.293,1.308,0.41,3.688c0.117,2.382,0.214,5.016,0.293,7.903  c0.076,3.357,0.116,7.221,0.116,11.591c0.077-4.292,0.194-8.117,0.352-11.475c0.077-1.405,0.136-2.81,0.176-4.215  c0.038-1.405,0.077-2.653,0.117-3.747c0.038-1.092,0.097-2.301,0.176-3.629c0.155-0.077,0.39-0.117,0.702-0.117l0.234-0.117  c0.311,0.468,0.545,0.743,0.702,0.82c0.155,0.157,0.352,0.351,0.586,0.585c0.234,0.234,0.507,0.43,0.819,0.585  c0.702,0.392,1.209,0.547,1.522,0.468c0.311-0.156,0.623-0.234,0.937-0.234c0.234,0.079,0.468,0.117,0.702,0.117  s0.469,0.041,0.703,0.117c0.076,0,0.135,0.995,0.175,2.986c0.039,1.99,0.077,4.586,0.117,7.786c0.039,3.202,0.098,6.85,0.176,10.948  c0.062,3.305,0.109,6.676,0.147,10.083c-0.053,0.016-0.106,0.032-0.147,0.045c-0.078,0.079-0.195,0.117-0.352,0.117h-0.116  l0.585,1.288c0,0.079-0.04,0.117-0.117,0.117c-0.078,0-0.157,0.02-0.234,0.059c-0.078,0.04-0.157,0.059-0.233,0.059  c-0.158,0.079-0.333,0.157-0.527,0.234c-0.195,0.079-0.41,0.196-0.644,0.352c-0.313,0.157-0.509,0.274-0.586,0.351  c-0.312,0.157-0.509,0.235-0.585,0.235c-0.157,0.156-0.274,0.233-0.352,0.233c-0.079,0-0.157,0.021-0.234,0.059  c-0.078,0.04-0.157,0.059-0.234,0.059c-0.157-0.077-0.351-0.117-0.585-0.117h-1.288c-0.547,0-0.937-0.038-1.171-0.116  c-0.157,0-0.333-0.02-0.526-0.059c-0.196-0.039-0.372-0.059-0.527-0.059c-0.157,0-0.293-0.02-0.41-0.059s-0.216-0.059-0.292-0.059  c-0.079,0-0.157-0.039-0.234-0.118h-0.117c-0.079,0-0.138,0.02-0.176,0.059c-0.04,0.04-0.099,0.059-0.176,0.059  c-0.312,0.156-0.585,0.273-0.819,0.351c-0.469,0.157-0.781,0.234-0.937,0.234c-0.079,0.079-0.196,0.117-0.352,0.117h-0.117  c0-0.077-0.04-0.117-0.117-0.117c-0.157,0-0.274-0.038-0.351-0.117l-0.104-0.052L48.818,14.453z M47.53,14.336  c0.004,0.224,0.007,0.439,0.01,0.66c0.005-0.056-0.014-0.119-0.068-0.192C47.354,14.649,47.373,14.493,47.53,14.336z M37.754,20.132  c0.038-0.039,0.097-0.059,0.176-0.059c0.076,0,0.117-0.019,0.117-0.059c0-0.039,0.038-0.059,0.117-0.059v0.937l-0.117-0.117  c-0.234-0.234-0.392-0.428-0.469-0.585C37.655,20.19,37.714,20.172,37.754,20.132z M35.822,28.035  c0.311-0.156,0.507-0.234,0.585-0.234c0.155-0.077,0.369,0.099,0.644,0.527c0.273,0.43,0.527,0.918,0.762,1.464  c0.311,0.625,0.585,1.366,0.819,2.225l-0.468-2.576c-0.158-0.624-0.275-1.189-0.352-1.698c-0.079-0.507-0.157-0.799-0.234-0.878  c-0.079-0.156-0.274-0.39-0.585-0.703l-0.938-1.171l0.117-0.117c0,0.079,0.077-0.038,0.234-0.351l0.469-0.468  c0.076,0,0.117,0.079,0.117,0.234c0,0.158,0.018,0.254,0.058,0.293c0.039,0.04,0.059,0.099,0.059,0.176v0.117  c0-0.077,0.039-0.155,0.117-0.234c0.077-0.077,0.194-0.273,0.352-0.585c0.155-0.156,0.311-0.39,0.469-0.703  c0.311-0.311,0.507-0.585,0.585-0.82c0.234-0.311,0.469-0.565,0.702-0.761c0.234-0.194,0.429-0.41,0.586-0.644  c0.155-0.077,0.252-0.156,0.293-0.234c0.038-0.077,0.097-0.117,0.176-0.117l0.116-0.234l-0.233-1.171  c0-0.155-0.021-0.292-0.059-0.41c-0.041-0.117-0.059-0.252-0.059-0.41l0.234-0.234l0.468-0.468c0.469-0.156,0.779-0.311,0.937-0.468  l0.352,0.468c0-0.077,0.038-0.117,0.117-0.117l0.234-0.234c0.233-0.234,0.428-0.39,0.585-0.468h0.117l0.469-0.234l0.233-0.234  c0.156-0.156,0.253-0.272,0.293-0.351c0.039-0.077,0.136-0.156,0.293-0.234l0.117-0.117h0.117c0.076-0.077,0.155-0.117,0.234-0.117  c0.155-0.077,0.292-0.117,0.409-0.117s0.253-0.039,0.41-0.117c0.155,0,0.311-0.019,0.468-0.059c0.156-0.039,0.312-0.059,0.469-0.059  c0.155,0,0.272-0.039,0.352-0.117h0.117c0.076-0.077,0.155-0.117,0.233-0.117c0.075-0.037,0.115-0.084,0.127-0.14  c0.07,4.711,0.107,8.86,0.107,12.435c0,3.747,0.019,7.806,0.059,12.177c0.036,4.194,0.057,8.09,0.058,11.708l-0.233-0.116  c-0.078,0-0.137-0.02-0.176-0.059c-0.04-0.039-0.099-0.059-0.175-0.059c-0.079-0.077-0.138-0.118-0.176-0.118  c-0.041,0-0.099-0.039-0.176-0.117c-0.312-0.155-0.605-0.311-0.878-0.468c-0.274-0.155-0.567-0.311-0.879-0.468  c-0.157-0.077-0.292-0.155-0.409-0.234c-0.117-0.077-0.255-0.155-0.41-0.234c-0.157-0.077-0.293-0.156-0.41-0.234  c-0.116-0.077-0.254-0.155-0.409-0.234c-0.569-0.218-1.017-0.41-1.364-0.58L41.91,47.94h-0.234c-0.078,0-0.137,0.02-0.175,0.058  c-0.02,0.019-0.053,0.032-0.097,0.042c-0.132-0.062-0.221-0.1-0.255-0.1c-0.04,0-0.138-0.039-0.293-0.117  c-0.157-0.156-0.274-0.273-0.352-0.352c-0.078-0.077-0.195-0.194-0.351-0.351c-0.392-0.311-0.605-0.604-0.645-0.878  c-0.04-0.273-0.059-0.527-0.059-0.761c0-0.156,0.077-0.311,0.234-0.468l0.117-0.117h-0.117c-0.078,0-0.157-0.039-0.234-0.117  c-0.157,0-0.274-0.018-0.351-0.059c-0.079-0.038-0.196-0.059-0.352-0.059c-0.157-0.077-0.274-0.117-0.352-0.117  c-0.078,0-0.195-0.039-0.351-0.117c-0.158,0-0.274-0.039-0.352-0.117v-0.351c0-0.156,0.019-0.273,0.059-0.352  c0.038-0.077,0.059-0.194,0.059-0.351c0-0.156,0.038-0.624,0.117-1.405c0.076-0.779,0.193-1.677,0.351-2.693  c0.156-1.092,0.312-2.38,0.469-3.864c-0.392,1.094-0.743,2.069-1.054,2.927c-0.312,0.781-0.586,1.463-0.819,2.049  c-0.234,0.585-0.431,0.84-0.586,0.761c-0.234,0-0.43,0.079-0.585,0.234c-0.079,0.079-0.157,0.196-0.234,0.352v-0.234  c0-0.077,0.019-0.155,0.059-0.234c0.038-0.077,0.059-0.194,0.059-0.352c0.076-0.155,0.117-0.252,0.117-0.292  c0-0.039,0.038-0.136,0.117-0.293v-0.234v-0.117l-0.234-0.468c-0.157-0.311-0.234-0.545-0.234-0.703  c-0.079-0.156-0.195-0.468-0.352-0.937c-0.157-0.311-0.254-0.663-0.292-1.054c-0.041-0.39-0.138-0.779-0.293-1.171L34.3,35.294  v-0.351c0-0.234-0.04-0.428-0.117-0.585v-0.585v-0.117c0.077-0.156,0.155-0.352,0.234-0.585c0.076-0.234,0.155-0.428,0.234-0.585  c0.155-0.468,0.272-0.779,0.351-0.937c0.156-0.311,0.312-0.545,0.469-0.703c0.077-0.077,0.117-0.156,0.117-0.234l-0.352,0.352  c-0.157,0.157-0.293,0.274-0.41,0.351c-0.116,0.079-0.216,0.196-0.292,0.351c-0.234,0.234-0.392,0.43-0.469,0.585v-0.702h0.117  c0.077-0.234,0.194-0.507,0.352-0.82c0.155-0.234,0.311-0.487,0.468-0.761c0.156-0.272,0.312-0.486,0.469-0.644  c0.077-0.077,0.136-0.155,0.176-0.234c0.038-0.077,0.097-0.156,0.176-0.234l0.116-0.117l-1.054-0.117l0.117-0.117  c0.077,0,0.194-0.077,0.352-0.234C35.509,28.269,35.664,28.192,35.822,28.035z M33.129,28.737c0-0.155,0.077-0.624,0.234-1.405  c0.155-0.468,0.272-0.858,0.351-1.171c0.077-0.155,0.117-0.272,0.117-0.351c0-0.077,0.039-0.194,0.117-0.352  c0.155-0.311,0.272-0.585,0.352-0.819c0.469-0.703,0.779-1.131,0.937-1.288c0,0.392-0.274,1.132-0.819,2.225  c-0.157,0.547-0.313,1.016-0.469,1.405c-0.157,0.391-0.274,0.781-0.351,1.171c-0.158,0.234-0.255,0.43-0.293,0.585  c-0.04,0.158-0.099,0.313-0.176,0.469V28.737z M30.787,46.769v0.117H30.67L30.787,46.769z M16.093,53.619  c0.038-0.039,0.097-0.059,0.176-0.059c0.077,0,0.117-0.02,0.117-0.059s0.038-0.059,0.117-0.059v0.936l-0.117-0.117  c-0.234-0.233-0.392-0.428-0.469-0.585C15.994,53.677,16.053,53.658,16.093,53.619z M11.937,61.639  c-0.157,0.234-0.255,0.43-0.293,0.586c-0.04,0.157-0.099,0.312-0.176,0.469v-0.469c0-0.156,0.077-0.624,0.234-1.405  c0.155-0.468,0.272-0.858,0.352-1.171c0.076-0.156,0.116-0.272,0.116-0.352c0-0.076,0.039-0.193,0.117-0.352  c0.156-0.311,0.272-0.585,0.352-0.818c0.469-0.703,0.779-1.131,0.937-1.289c0,0.393-0.274,1.133-0.819,2.225  c-0.157,0.547-0.312,1.016-0.469,1.405C12.13,60.859,12.013,61.249,11.937,61.639z M21.771,82.48c-1.016-0.39-1.68-0.703-1.99-0.938  c-0.157-0.076-0.255-0.117-0.293-0.117c-0.04,0-0.138-0.037-0.293-0.116c-0.157-0.155-0.274-0.272-0.351-0.352  c-0.079-0.077-0.196-0.194-0.352-0.351c-0.392-0.312-0.605-0.604-0.645-0.879c-0.04-0.272-0.059-0.527-0.059-0.761  c0-0.155,0.077-0.312,0.234-0.468l0.117-0.117h-0.117c-0.078,0-0.157-0.039-0.234-0.117c-0.157,0-0.274-0.019-0.351-0.059  c-0.079-0.039-0.196-0.059-0.352-0.059c-0.157-0.077-0.274-0.117-0.352-0.117c-0.078,0-0.195-0.039-0.351-0.117  c-0.157,0-0.274-0.039-0.352-0.117v-0.352c0-0.155,0.019-0.272,0.059-0.352c0.038-0.076,0.059-0.193,0.059-0.351  c0-0.155,0.038-0.624,0.117-1.405c0.077-0.779,0.193-1.678,0.352-2.693c0.155-1.092,0.311-2.38,0.468-3.863  c-0.392,1.094-0.742,2.068-1.054,2.928c-0.312,0.78-0.585,1.463-0.819,2.049c-0.234,0.585-0.43,0.84-0.586,0.761  c-0.234,0-0.43,0.079-0.585,0.233c-0.079,0.079-0.157,0.196-0.234,0.352v-0.234c0-0.076,0.019-0.154,0.059-0.234  c0.038-0.076,0.059-0.193,0.059-0.351c0.077-0.155,0.117-0.253,0.117-0.292s0.038-0.137,0.117-0.293v-0.234v-0.117l-0.234-0.469  c-0.157-0.311-0.234-0.545-0.234-0.702c-0.078-0.155-0.195-0.468-0.352-0.937c-0.157-0.312-0.254-0.662-0.292-1.055  c-0.041-0.389-0.138-0.779-0.293-1.17l-0.117-0.234V68.43c0-0.234-0.04-0.428-0.117-0.586v-0.585v-0.116  c0.077-0.156,0.155-0.352,0.234-0.586c0.077-0.234,0.155-0.428,0.234-0.586c0.155-0.468,0.272-0.779,0.351-0.937  c0.156-0.312,0.312-0.545,0.469-0.702c0.077-0.077,0.117-0.156,0.117-0.234l-0.352,0.352c-0.157,0.157-0.293,0.273-0.409,0.352  c-0.117,0.078-0.216,0.195-0.293,0.351c-0.234,0.234-0.392,0.431-0.469,0.585v-0.702h0.117c0.077-0.233,0.194-0.507,0.352-0.819  c0.155-0.234,0.311-0.486,0.468-0.762c0.156-0.271,0.312-0.486,0.469-0.644c0.077-0.077,0.136-0.155,0.176-0.233  c0.038-0.078,0.097-0.156,0.176-0.234l0.117-0.117l-1.054-0.117l0.116-0.117c0.077,0,0.194-0.077,0.352-0.234  c0.155,0,0.312-0.076,0.469-0.234c0.311-0.155,0.507-0.234,0.585-0.234c0.155-0.076,0.37,0.1,0.645,0.527  c0.272,0.43,0.526,0.918,0.761,1.463c0.311,0.627,0.585,1.367,0.819,2.226l-0.468-2.576c-0.157-0.624-0.274-1.188-0.352-1.698  c-0.079-0.506-0.157-0.799-0.234-0.877c-0.078-0.156-0.274-0.391-0.585-0.703l-0.938-1.171l0.117-0.117  c0,0.079,0.077-0.038,0.234-0.351l0.469-0.469c0.076,0,0.117,0.078,0.117,0.234s0.018,0.254,0.059,0.293  c0.038,0.039,0.059,0.098,0.059,0.175v0.117c0-0.077,0.038-0.155,0.116-0.233c0.077-0.078,0.194-0.273,0.352-0.586  c0.155-0.156,0.312-0.39,0.469-0.703c0.311-0.311,0.507-0.585,0.585-0.819c0.234-0.312,0.469-0.565,0.703-0.761  c0.233-0.194,0.428-0.41,0.585-0.645c0.155-0.076,0.253-0.155,0.293-0.234c0.038-0.076,0.097-0.117,0.176-0.117l0.117-0.233  l-0.234-1.171c0-0.156-0.021-0.293-0.059-0.41c-0.04-0.117-0.059-0.252-0.059-0.41l0.234-0.233l0.468-0.468  c0.469-0.156,0.779-0.312,0.937-0.469l0.352,0.469c0-0.078,0.038-0.117,0.117-0.117l0.234-0.235c0.234-0.234,0.428-0.39,0.585-0.468  h0.117l0.469-0.234l0.234-0.234c0.155-0.156,0.252-0.272,0.292-0.352c0.039-0.077,0.136-0.155,0.293-0.234l0.117-0.117h0.117  c0.077-0.077,0.155-0.117,0.234-0.117c0.155-0.077,0.292-0.117,0.409-0.117s0.253-0.038,0.41-0.117c0.155,0,0.311-0.019,0.468-0.059  c0.156-0.039,0.312-0.059,0.469-0.059c0.155,0,0.272-0.039,0.352-0.117h0.117c0.076-0.077,0.155-0.117,0.233-0.117  c0.156-0.077,0.176-0.194,0.059-0.351c-0.116-0.156-0.099-0.311,0.059-0.468c0.156,2.576,0.253,4.841,0.293,6.791  c0.038,1.953,0.117,4.061,0.234,6.323c0.117,2.265,0.193,4.372,0.234,6.322c0.038,1.952,0.135,4.216,0.292,6.791l0.234-26.11  c0.155,0,0.234,0.781,0.234,2.341c0,1.562,0.038,3.279,0.117,5.152c0,2.186,0.038,4.645,0.117,7.376l0.234-7.493  c0.076-1.873,0.155-3.59,0.233-5.152c0.077-1.561,0.194-2.38,0.352-2.459v-0.117c0.155,0.079,0.312,0.099,0.469,0.059  c0.155-0.039,0.311-0.018,0.468,0.059c0.155,0.079,0.293,1.308,0.41,3.688c0.117,2.382,0.214,5.017,0.293,7.903  c0.076,3.357,0.117,7.221,0.117,11.592c0.076-4.292,0.193-8.117,0.351-11.475c0.077-1.404,0.136-2.811,0.176-4.215  c0.038-1.405,0.077-2.652,0.117-3.747c0.038-1.092,0.097-2.301,0.176-3.629c0.155-0.077,0.39-0.117,0.702-0.117l0.234-0.117  c0.311,0.468,0.545,0.743,0.702,0.82c0.023,0.024,0.055,0.054,0.08,0.08c0.013,0.185,0.022,0.387,0.037,0.564  c0.077,0.977,0.155,1.503,0.234,1.581l0.048-1.826c0.062,0.061,0.118,0.119,0.187,0.187c0.234,0.234,0.507,0.43,0.819,0.585  c0.703,0.391,1.209,0.547,1.522,0.468c0.311-0.156,0.624-0.234,0.937-0.234c0.234,0.079,0.469,0.117,0.702,0.117  c0.234,0,0.469,0.04,0.703,0.117c0.076,0,0.176,0.274,0.292,0.819c0.117,0.547,0.215,1.153,0.293,1.815  c0.077,0.664,0.155,1.27,0.234,1.814c0.077,0.547,0.155,0.82,0.234,0.82c0.076,0.078,0.135-0.136,0.176-0.645  c0.038-0.506,0.097-1.072,0.175-1.697l0.234-2.342c0.077,0,0.156,0.04,0.234,0.117c0.234,0.234,0.428,0.391,0.586,0.469  c0.311,0.312,0.585,0.547,0.819,0.702c0.155,0.157,0.311,0.292,0.468,0.409c0.156,0.117,0.312,0.255,0.469,0.41l0.009,0.009  c0.068,0.141,0.108,0.259,0.108,0.343c0,0.234,0.272,0.469,0.819,0.702c0.104,0.052,0.187,0.083,0.273,0.117  c0.026,0.017,0.052,0.046,0.078,0.059c0.077,0.04,0.193,0.138,0.352,0.292l0.468,0.469c0.39,0.392,0.761,0.723,1.112,0.996  s0.721,0.526,1.112,0.76c0.312,0.158,0.586,0.352,0.819,0.586c0,0.158-0.02,0.333-0.059,0.527c-0.04,0.195-0.058,0.449-0.058,0.761  c0,0.468,0.038,0.743,0.116,0.819c0.077,0.079,0.194,0.079,0.352,0c0.047-0.023,0.108-0.061,0.159-0.088  c0.015,1.393,0.033,2.843,0.056,4.351c-0.111-0.149-0.222-0.287-0.332-0.398l-0.234-0.468l-0.116-0.234v0.117  c0,0.156,0.038,0.273,0.116,0.351c0.077,0.157,0.117,0.313,0.117,0.468c0,0.158,0.077,0.313,0.234,0.469  c0.093,0.375,0.168,0.693,0.233,0.982c0,0.024,0.001,0.047,0.001,0.072l0.001-0.062c0.043,0.19,0.085,0.377,0.116,0.53  c0.155,0.313,0.39,0.86,0.702,1.64c0.155,0.234,0.293,0.488,0.41,0.761c0.117,0.274,0.252,0.567,0.409,0.878  c0.194,0.521,0.423,0.938,0.672,1.295c-0.054,0.193-0.086,0.386-0.086,0.578c0,0.234-0.079,0.509-0.234,0.82  c-0.022,0.096-0.055,0.201-0.08,0.3c-0.062-0.042-0.114-0.065-0.154-0.065c-0.266,0-0.291,0.33-0.105,0.951  c-0.239,0.738-0.55,1.547-0.948,2.443c-0.157,0.158-0.312,0.469-0.468,0.938c-0.157,0.157-0.274,0.312-0.352,0.469  c-0.079,0.156-0.157,0.312-0.234,0.468c-0.157,0.157-0.274,0.312-0.351,0.468c-0.079,0.158-0.196,0.313-0.352,0.469l-0.703,0.82  l-0.351,0.468l-0.352,0.468l-0.819,0.82c-0.313,0.312-0.586,0.547-0.819,0.702c-0.313,0.313-0.586,0.548-0.82,0.702  c-0.157,0.079-0.292,0.158-0.409,0.234c-0.117,0.079-0.255,0.196-0.41,0.352c-0.157,0.078-0.293,0.157-0.41,0.234  c-0.117,0.078-0.254,0.157-0.409,0.234c-0.157,0.156-0.293,0.254-0.41,0.293s-0.254,0.098-0.41,0.175  c-0.157,0.079-0.274,0.157-0.351,0.234c-0.079,0.079-0.196,0.157-0.352,0.234c-0.469,0.079-0.937,0.274-1.405,0.585  c-0.312,0.079-0.702,0.195-1.171,0.352l-0.702,0.234H36.29c-0.078,0.078-0.195,0.117-0.352,0.117h-0.702  c-0.078,0-0.157,0.02-0.234,0.059c-0.078,0.04-0.157,0.059-0.233,0.059c-0.158-0.077-0.352-0.117-0.586-0.117h-1.288  c-0.547,0-0.937-0.039-1.171-0.117c-0.157,0-0.333-0.019-0.526-0.059c-0.196-0.039-0.372-0.059-0.527-0.059  c-0.157,0-0.293-0.019-0.41-0.059c-0.116-0.039-0.216-0.059-0.292-0.059c-0.079,0-0.157-0.039-0.234-0.117h-0.117  c-0.079,0-0.137,0.02-0.176,0.059c-0.04,0.04-0.099,0.059-0.176,0.059c-0.312,0.157-0.585,0.274-0.819,0.352  c-0.469,0.156-0.781,0.234-0.937,0.234c-0.079,0.078-0.196,0.117-0.352,0.117H27.04c0-0.078-0.04-0.117-0.117-0.117  c-0.157,0-0.274-0.039-0.351-0.117l-0.703-0.352c-0.078,0-0.137-0.019-0.175-0.059c-0.041-0.039-0.1-0.059-0.176-0.059  c-0.079-0.077-0.138-0.117-0.176-0.117c-0.04,0-0.099-0.039-0.176-0.117c-0.312-0.155-0.605-0.311-0.878-0.469  c-0.274-0.154-0.567-0.311-0.878-0.468c-0.158-0.077-0.293-0.155-0.41-0.234c-0.117-0.077-0.255-0.155-0.41-0.233  c-0.157-0.078-0.292-0.156-0.409-0.234C22.064,82.638,21.927,82.559,21.771,82.48z M47.413,78.968  c-1.483,1.952-3.318,3.63-5.503,5.034c-1.094,0.703-2.225,1.27-3.396,1.698c-1.171,0.43-2.342,0.761-3.513,0.995  s-2.303,0.371-3.396,0.41c-1.094,0.04-2.107-0.019-3.044-0.176c-0.626-0.156-1.094-0.234-1.405-0.234  c-0.157-0.076-0.351-0.135-0.585-0.176c-0.234-0.038-0.431-0.097-0.586-0.176c-0.157-0.076-0.333-0.117-0.526-0.117  c-0.196,0-0.372-0.038-0.527-0.117c-0.157-0.076-0.293-0.135-0.409-0.176c-0.117-0.037-0.255-0.096-0.41-0.175  c-0.234-0.155-0.45-0.253-0.645-0.293c-0.195-0.038-0.371-0.136-0.526-0.292l-0.234-0.117c-0.078,0-0.117-0.039-0.117-0.117v-0.117  c0.155,0.078,0.312,0.137,0.469,0.176c0.155,0.04,0.311,0.137,0.468,0.293c0.156,0,0.469,0.078,0.938,0.233  c0.076,0,0.155,0.021,0.233,0.059c0.077,0.04,0.156,0.059,0.234,0.059c0.077,0.079,0.155,0.117,0.234,0.117  c0.077,0,0.194,0.04,0.352,0.117c0.39,0.079,0.779,0.157,1.171,0.233c0.39,0.079,0.819,0.158,1.287,0.234  c1.795,0.312,3.883,0.275,6.265-0.117c2.38-0.389,4.625-1.247,6.732-2.575c2.107-1.327,3.902-2.888,5.386-4.684l1.054-1.405  c0.312-0.623,0.586-1.092,0.82-1.404c0.233-0.469,0.448-0.938,0.644-1.406c0.194-0.468,0.369-0.896,0.527-1.287  c0.092-0.23,0.166-0.469,0.23-0.713c0.001,0.004,0.002,0.006,0.003,0.01c0.077,0.234,0.156,0.469,0.234,0.703  c0.077,0.234,0.155,0.43,0.234,0.585c0.006,0.009,0.01,0.015,0.016,0.022C49.535,75.651,48.646,77.281,47.413,78.968z   M50.754,72.473c0.012-0.055,0.023-0.112,0.035-0.164c0.013,0.062,0.02,0.134,0.02,0.219L50.754,72.473z M52.097,62.225  c-0.157,0.234-0.254,0.43-0.293,0.585c-0.04,0.157-0.099,0.313-0.175,0.468V62.81c0-0.073,0.019-0.222,0.053-0.433  c0.072-0.125,0.135-0.224,0.181-0.27l0.117-0.117c0-0.077-0.04-0.193-0.117-0.352c-0.013-0.025-0.021-0.043-0.033-0.065  c0.012-0.059,0.021-0.106,0.033-0.169c0.156-0.468,0.273-0.857,0.352-1.17c0.077-0.156,0.117-0.273,0.117-0.352  c0-0.077,0.038-0.194,0.117-0.352c0.155-0.311,0.272-0.586,0.352-0.819c0.468-0.702,0.779-1.131,0.937-1.288  c0,0.392-0.274,1.133-0.82,2.225c-0.157,0.547-0.312,1.016-0.468,1.404C52.291,61.445,52.174,61.834,52.097,62.225z M59.941,82.129  c-0.157-0.076-0.254-0.117-0.292-0.117c-0.041,0-0.138-0.038-0.293-0.117c-0.157-0.155-0.274-0.272-0.352-0.352  c-0.078-0.076-0.195-0.193-0.352-0.351c-0.391-0.312-0.605-0.604-0.644-0.878c-0.04-0.273-0.059-0.527-0.059-0.762  c0-0.155,0.077-0.311,0.234-0.468l0.117-0.117h-0.117c-0.079,0-0.157-0.038-0.234-0.117c-0.157,0-0.274-0.019-0.352-0.059  c-0.078-0.038-0.195-0.059-0.351-0.059c-0.157-0.077-0.274-0.117-0.352-0.117c-0.079,0-0.195-0.038-0.352-0.116  c-0.157,0-0.274-0.039-0.351-0.117v-0.352c0-0.156,0.018-0.273,0.059-0.352c0.038-0.076,0.058-0.193,0.058-0.352  c0-0.155,0.039-0.623,0.117-1.404c0.077-0.779,0.194-1.678,0.352-2.693c0.155-1.092,0.312-2.381,0.469-3.863  c-0.392,1.094-0.743,2.068-1.054,2.927c-0.313,0.78-0.586,1.464-0.82,2.049c-0.233,0.585-0.43,0.84-0.585,0.761  c-0.234,0-0.43,0.079-0.586,0.234c-0.078,0.078-0.157,0.195-0.233,0.352v-0.234c0-0.076,0.018-0.155,0.058-0.234  c0.039-0.076,0.059-0.193,0.059-0.352c0.077-0.154,0.117-0.252,0.117-0.292c0-0.038,0.039-0.136,0.117-0.293V74.05v-0.116  l-0.234-0.469c-0.157-0.311-0.233-0.545-0.233-0.703c-0.079-0.155-0.196-0.468-0.352-0.937c-0.157-0.312-0.254-0.662-0.293-1.054  c-0.04-0.39-0.137-0.779-0.293-1.171L52.8,69.367v-0.352c0-0.234-0.041-0.428-0.117-0.586v-0.586v-0.116  c0.076-0.155,0.155-0.352,0.233-0.585c0.077-0.234,0.156-0.429,0.234-0.586c0.156-0.469,0.272-0.779,0.352-0.938  c0.155-0.311,0.311-0.545,0.469-0.701c0.076-0.078,0.116-0.156,0.116-0.234l-0.351,0.351c-0.157,0.157-0.293,0.274-0.41,0.352  c-0.117,0.079-0.216,0.196-0.293,0.351c-0.233,0.234-0.392,0.431-0.468,0.586v-0.703h0.117c0.076-0.233,0.193-0.506,0.351-0.818  c0.156-0.234,0.312-0.487,0.469-0.762c0.155-0.272,0.311-0.486,0.469-0.645c0.076-0.076,0.135-0.154,0.175-0.233  c0.039-0.077,0.098-0.155,0.176-0.234l0.117-0.117l-1.054-0.116l0.117-0.117c0.077,0,0.194-0.078,0.352-0.234  c0.155,0,0.311-0.077,0.468-0.234c0.312-0.156,0.507-0.234,0.586-0.234c0.155-0.076,0.369,0.099,0.644,0.527  c0.272,0.43,0.527,0.918,0.761,1.463c0.312,0.626,0.586,1.367,0.82,2.225l-0.469-2.576c-0.157-0.623-0.274-1.188-0.352-1.697  c-0.078-0.507-0.157-0.799-0.233-0.878c-0.079-0.155-0.274-0.39-0.586-0.702l-0.937-1.172l0.117-0.117  c0,0.079,0.077-0.038,0.234-0.351l0.468-0.468c0.077,0,0.117,0.078,0.117,0.233c0,0.157,0.019,0.255,0.059,0.293  c0.038,0.04,0.059,0.099,0.059,0.175v0.117c0-0.076,0.038-0.154,0.117-0.233c0.077-0.077,0.194-0.272,0.352-0.585  c0.155-0.156,0.311-0.391,0.468-0.703c0.312-0.311,0.507-0.586,0.586-0.82c0.234-0.311,0.468-0.564,0.702-0.76  s0.429-0.41,0.586-0.645c0.155-0.077,0.252-0.156,0.292-0.234c0.039-0.076,0.098-0.117,0.176-0.117l0.117-0.234l-0.234-1.17  c0-0.044-0.014-0.074-0.017-0.115c0.004,0,0.014-0.002,0.017-0.002l0.234-0.117l0.117-0.117l1.054-0.352  c0.027-0.01,0.049-0.019,0.076-0.027c0.032,3.594,0.065,7.143,0.1,10.623c0.038,4.099,0.077,7.748,0.117,10.948  c0.038,3.202,0.076,5.796,0.117,7.786c0.003,0.152,0.006,0.288,0.01,0.43C60.308,82.36,60.083,82.235,59.941,82.129z"/></svg>